<svg xmlns="http://www.w3.org/2000/svg" width="170" height="50" viewBox="0 0 170 50"><g><g><g><path fill="#ff6700" d="M0 5a5 5 0 0 1 5-5h160a5 5 0 0 1 5 5v40a5 5 0 0 1-5 5H5a5 5 0 0 1-5-5z"/></g><g><path fill="#fff" d="M152.424 12c.01-.427-.08-.77-.263-1.06-.236-.373-.596-.56-1.082-.56a1.29 1.29 0 0 0-1.079.547 2.002 2.002 0 0 0-.406 1.073zm1.297.32c0 .241-.018.444-.05.61h-4.077c.018.597.213 1.07.59 1.367.345.282.816.423 1.335.423.603 0 1.153-.094 1.648-.286l.213.934c-.58.25-1.262.373-2.052.373-.947 0-1.692-.276-2.232-.827-.542-.551-.81-1.291-.81-2.22 0-.91.25-1.694.714-2.276.567-.646 1.279-.969 2.178-.969.879 0 1.547.323 1.998.97.365.512.545 1.147.545 1.9zm-7.422 3.308h-1.36v-3.436c0-1.084-.41-1.626-1.231-1.626-.63 0-1.061.314-1.297.942a1.69 1.69 0 0 0-.064.492v3.627H141V6.81h1.347v3.643h.026c.428-.663 1.04-.994 1.836-.994.563 0 1.029.182 1.398.541.46.462.692 1.14.692 2zm-8.692-5.038v2.937c0 .746.266 1.12.792 1.12.244 0 .447-.021.601-.064v1.02c-.228.1-.581.15-1 .15-.552 0-1-.162-1.272-.485-.304-.323-.454-.867-.454-1.63V10.59h-.894V9.584h.894V8.476l1.332-.398v1.504h1.496v1.008zM130 15.628h-1.401v-3.462c0-1.067-.41-1.6-1.233-1.6-.366 0-.73.146-.98.434a1.55 1.55 0 0 0-.386 1v3.627h-1.352v-4.316c0-.53-.016-1.107-.049-1.73h1.193l.064.945h.038c.16-.293.395-.526.704-.73.402-.225.78-.34 1.233-.34.57 0 1.044.183 1.422.544.47.452.747 1.12.747 2zm-8.76-3.028c0-.6-.122-1.037-.364-1.435-.287-.482-.69-.723-1.22-.723-.545 0-.96.24-1.247.723-.244.398-.409.835-.409 1.459 0 .558.167 1.036.41 1.435.294.482.704.723 1.233.723.518 0 .927-.245 1.22-.782.25-.36.377-.843.377-1.4zm1.41-.044c-.001.93-.27 1.691-.807 2.289-.562.614-1.307.92-2.24.92-.895 0-1.603-.293-2.144-.883-.532-.589-.798-1.331-.798-2.226 0-.936.274-1.656.824-2.3.515-.597 1.289-.895 2.221-.895.896 0 1.619.293 2.163.882.52.572.78 1.31.78 2.213zm-13.034.523v-1.008c0-.174-.013-.315-.037-.423-.073-.317-.245-.648-.492-.814a1.346 1.346 0 0 0-.909-.33c-.507 0-.904.2-1.178.598-.307.399-.453.898-.453 1.53 0 .597.138 1.082.453 1.455.259.398.656.596 1.152.596.446 0 .848-.165 1.074-.497.262-.307.39-.676.39-1.107zM111 15.628h-1.181l-.064-.97h-.037c-.386.738-1.042 1.107-1.964 1.107-.754 0-1.35-.285-1.836-.857-.487-.572-.73-1.315-.73-2.226 0-.979.264-1.77.812-2.376a2.382 2.382 0 0 1 1.868-.847c.821 0 1.396.273 1.723.82h.025V6.81H111v8.817zm-9.109-2.077v-.932c-1.5-.026-2.249.381-2.249 1.218 0 .315.086.551.26.709.183.16.421.245.665.236.298 0 .577-.094.831-.28.312-.216.496-.572.493-.951zm1.411 2.077h-1.22l-.082-.696h-.057c-.418.555-1.013.833-1.786.833-.577 0-1.044-.183-1.395-.547A1.69 1.69 0 0 1 98.283 14c0-.752.311-1.315.938-1.704.625-.39 1.504-.581 2.636-.572v-.113c0-.796-.423-1.194-1.27-1.194-.587 0-1.134.15-1.587.448L98.717 10c.568-.365 1.283-.54 2.098-.54 1.597 0 2.399.834 2.399 2.54v2.187c0 .604.03 1.085.088 1.44zM95.314 12.6c0-.6-.123-1.037-.365-1.435-.284-.482-.692-.723-1.218-.723-.547 0-.962.24-1.246.723-.244.398-.365.835-.365 1.459 0 .558.122 1.036.365 1.435.294.482.704.723 1.233.723.519 0 .925-.245 1.218-.782.253-.36.377-.843.377-1.4zm1.41-.044c0 .93-.268 1.691-.805 2.289-.563.614-1.31.92-2.24.92-.899 0-1.613-.293-2.145-.883-.534-.589-.798-1.331-.798-2.226 0-.936.264-1.656.824-2.3.55-.597 1.29-.895 2.22-.895.898 0 1.617.293 2.165.882.518.572.78 1.31.78 2.213zm-8.002 3.072h-1.357V6.81h1.357zm-3.722 0h-1.385v-3.462c0-1.067-.41-1.6-1.232-1.6-.383 0-.729.146-.982.434-.248.293-.401.662-.401 1v3.627h-1.335v-4.316c0-.53-.017-1.107-.05-1.73h1.195l.064.945h.037c.158-.293.395-.526.704-.73.385-.225.781-.34 1.233-.34.57 0 1.045.183 1.422.544.47.452.73 1.12.73 2zm-7.071-6.044v.001h-.001v-.001zM76 15.628h-1.229L74 13c-.22-.638-.383-1.29-.513-1.948h-.025A19.919 19.919 0 0 1 73 13l-.871 2.629h-1.26l-1.797-6.045h1.396l.692 2.873c.167.68.304 1.327.415 1.94h.024c.102-.505.27-1.149.505-1.927L73 9.585h1.079l.831 2.824c.201.688.365 1.35.49 1.99h.038c.092-.622.231-1.285.415-1.99l.742-2.824h1.333zM66.33 12.6c0-.6-.121-1.037-.33-1.435-.319-.482-.725-.723-1.254-.723-.545 0-.96.24-1.245.723-.244.398-.365.835-.365 1.459 0 .558.122 1.036.365 1.435.294.482.704.723 1.233.723.519 0 .926-.245 1.266-.782.205-.36.33-.843.33-1.4zm1.41-.044c0 .93-.268 1.691-.805 2.289-.563.614-1.309.92-2.24.92-.897 0-1.612-.293-2.145-.883-.55-.589-.798-1.331-.798-2.226 0-.936.248-1.656.824-2.3.55-.597 1.289-.895 2.22-.895.898 0 1.619.293 2.204.882.479.572.741 1.31.741 2.213zm-9.031-1.281c0-.978-.262-1.73-.786-2.275-.524-.499-1.29-.76-2.297-.76a5.82 5.82 0 0 0-1.095.087v6.27c.168.025.469.036.919.036 1.04 0 1.842-.286 2.408-.858.565-.57.85-1.405.85-2.5zm1.433-.037c0 1.51-.458 2.645-1.372 3.408-.847.704-2.05 1.057-3.61 1.057-.773 0-1.434-.034-1.988-.1V7.356c.723-.115 1.5-.174 2.34-.174 1.488 0 2.605.32 3.36.958.846.722 1.27 1.754 1.27 3.098zm92.173 20.118c.018-.81-.162-1.51-.537-2.101-.478-.76-1.214-1.14-2.203-1.14-.904 0-1.64.37-2.201 1.114-.46.59-.734 1.3-.818 2.126h5.759zm2.685.71c0 .49-.081.934-.15 1.24h-8.294c.032 1.215.444 2.145 1.203 2.786.699.573 1.603.908 2.713.908a9.263 9.263 0 0 0 3.356-.63l.434 1.898c-1.178.508-2.568.732-4.172.732-1.93 0-3.445-.533-4.547-1.655-1.1-1.122-1.651-2.63-1.651-4.519 0-1.826.512-3.4 1.538-4.633 1.074-1.315 2.57-1.973 4.35-1.973 1.794 0 3.152.658 4.074 1.973.73 1.045 1.146 2.338 1.146 3.873zM142.585 28.9h.001zm-.871-.076c-.972 0-1.714.363-2.254 1.09-.46.641-.691 1.452-.691 2.43V38.8H136v-8.43c0-1.37 0-2.709-.072-3.873h2.408l.101 2.354h.077a4.005 4.005 0 0 1 1.382-1.95c.616-.44 1.281-.659 1.999-.659.255 0 .486.019.69.05V28.9a4.932 4.932 0 0 0-.871-.076zm-10.984 3.81c0-1.134-.245-2.107-.73-2.92-.592-.981-1.421-1.47-2.494-1.47-1.112 0-1.956.49-2.506 1.47-.526.814-.772 1.803-.772 2.972 0 1.135.246 2.108.772 2.919.568.982 1.403 1.472 2.481 1.472 1.056 0 1.884-.5 2.519-1.498.473-.827.73-1.81.73-2.944zm2.868-.087c0 1.89-.547 3.453-1.598 4.658-1.186 1.25-2.706 1.873-4.601 1.873-1.826 0-3.28-.598-4.399-1.796-1-1.198-1.59-2.71-1.59-4.532 0-1.906.59-3.468 1.676-4.682 1.116-1.216 2.623-1.824 4.518-1.824 1.826 0 3.296.599 4.396 1.756 1.069 1.205 1.598 2.706 1.598 4.547zm-13.75-4H116.8v5.974c0 1.479.537 2.279 1.613 2.279.494 0 .904-.043 1.228-.127l.077 2.076c-.545.251-1.262.302-2.15.302-1.092 0-1.946-.33-2.568-.987-.607-.659-.916-1.764-.916-3.317v-6.203h-1.815v-2.052h1.815V24.24l2.716-.81v3.063h3.048zm-10.675 9.012c-1.173.996-2.69 1.494-4.701 1.494-1.857 0-3.346-.354-4.472-1.053l.639-2.29a7.64 7.64 0 0 0 3.997 1.09c1.042 0 1.852-.232 2.435-.696.58-.465.869-1.104.869-1.865 0-.692-.24-1.239-.718-1.749-.476-.49-1.222-.913-2.38-1.32-3.022-1.114-4.532-2.746-4.532-4.892 0-1.403.53-2.553 1.59-3.449 1.1-.896 2.463-1.343 4.224-1.343 1.57 0 2.876.27 3.876.81l-.651 2.229c-.972-.525-2.072-.785-3.349-.785-.927 0-1.687.26-2.23.71-.461.421-.692.935-.692 1.55 0 .669.263 1.226.792 1.664.46.406 1.297.845 2.51 1.336 1.486.572 2.62 1.264 3.278 2.057.7.79 1.048 1.778 1.048 2.943 0 1.466-.51 2.647-1.533 3.56zm-17.288-4.962c0-1.198-.273-2.185-.82-2.963-.598-.81-1.398-1.215-2.406-1.215-.659 0-1.302.226-1.857.67a3.11 3.11 0 0 0-1.087 1.761 3.609 3.609 0 0 0-.128.834v2.05c0 .896.277 1.65.83 2.266.583.618 1.276.927 2.165.927 1.042 0 1.852-.398 2.418-1.19.595-.794.885-1.84.885-3.14zm2.817-.1c0 2.092-.572 3.746-1.702 4.96-1 1.082-2.31 1.621-3.829 1.621-1.64 0-2.817-.582-3.533-1.746h-.051v6.482h-2.765V30.546a82.6 82.6 0 0 0-.103-4.05h2.432l.154 1.95h.052c.92-1.446 2.32-2.203 4.2-2.203 1.443 0 2.692.573 3.675 1.757.98 1.113 1.47 2.623 1.47 4.497zm-17.13.1c0-1.198-.273-2.185-.82-2.963-.598-.81-1.4-1.215-2.407-1.215-.682 0-1.345.226-1.856.67a3.105 3.105 0 0 0-1.088 1.761 3.545 3.545 0 0 0-.128.834v2.05c0 .896.277 1.65.832 2.266.555.62 1.277.927 2.164.927 1.041 0 1.852-.398 2.43-1.19.582-.794.873-1.84.873-3.14zm2.817-.1c0 2.092-.572 3.746-1.716 4.96-1.025 1.082-2.297 1.621-3.816 1.621-1.639 0-2.857-.582-3.534-1.746h-.051v6.482h-2.765V30.546c0-1.315-.035-2.666-.103-4.05h2.432l.164 1.95c1-1.446 2.363-2.203 4.242-2.203 1.467 0 2.693.573 3.673 1.757.983 1.113 1.474 2.623 1.474 4.497zm-19.333-.812l-1.459-4.456c-.154-.455-.444-1.527-.87-3.229h-.052c-.17.74-.444 1.812-.82 3.229l-1.433 4.456zm5.045 7.115h-2.945l-1.614-5.012h-5.607L54.398 38.8H51.53l5.556-17.064h3.432z"/></g><g><path fill="#fff" d="M29.406 13c1.136-1.359 1.913-3.24 1.697-5.15-1.643.07-3.699 1.15-4.882 2.46-1.047 1.192-1.983 3.146-1.741 4.983 1.846.135 3.742-.907 4.926-2.293zm5.118 14.332c-.038-4.078 3.476-6.063 3.587-6.155C36.148 18.389 33.105 18 32 18c-2.52-.284-5 1.467-6.301 1.467-1.328 0-3.332-1.467-5.493-1.467-2.78.088-5.381 1.656-6.808 4.09-2.944 4.965-.748 12.261 2.072 16.274 1.411 1.965 3.06 4.16 5.218 4.082 2.11-.085 2.9-1.311 5.448-1.311 2.524 0 3.265 1.31 5.466 1.262 2.266-.036 3.692-1.974 5.054-3.957 1.63-2.253 2.285-4.44 2.344-4.585-.086-.018-4.433-1.634-4.476-6.523z"/></g></g></g></svg>