<svg xmlns="http://www.w3.org/2000/svg" width="66" height="20" viewBox="0 0 66 20"><g><g><path fill="#f9f9f9" d="M44.65 17.645a.739.739 0 0 1-.118-.462c0-.28.044-.559.132-.825.07-.233.19-.448.336-.629a.7.7 0 0 1 .482-.23.446.446 0 0 1 .36.16c.095.12.158.271.158.425 0 .292-.07.582-.171.853-.082.233-.21.446-.376.624a.668.668 0 0 1-.453.231.406.406 0 0 1-.35-.147zm1.097.133h.019l-.061.53h.531l.69-3.308h-.527l-.181.459h-.029a.827.827 0 0 0-.806-.538c-.29.001-.568.079-.784.308a2.635 2.635 0 0 0-.599.836 4.268 4.268 0 0 0-.163 1.137c-.02.305.065.608.239.857a.784.784 0 0 0 .651.308c.412-.022.79-.24 1.02-.59zm-2.661-.837c-.086-.103-.086-.196-.196-.274a2.27 2.27 0 0 0-.436-.304 1.705 1.705 0 0 1-.394-.27c-.06-.093-.06-.15-.06-.24 0-.11 0-.214.097-.277a.562.562 0 0 1 .346-.099c.274.009.557.088.777.23l.226-.528c-.31-.179-.66-.262-1.013-.256a1.267 1.267 0 0 0-.845.265.906.906 0 0 0-.313.73.823.823 0 0 0 .151.494c.141.173.317.313.516.41.15.08.289.178.414.293.066.071.102.166.1.263a.377.377 0 0 1-.175.328.763.763 0 0 1-.459.12 1.745 1.745 0 0 1-.911-.27v.61c.293.142.616.211.94.201.342.02.68-.078.96-.281.189-.195.36-.493.344-.8a.827.827 0 0 0-.069-.344zM40.736 15h-.685l-.69 3.308H40zm-.446-.587a.413.413 0 0 0 .257.077.405.405 0 0 0 .307-.123A.544.544 0 0 0 41 14c0-.06-.058-.15-.126-.21a.38.38 0 0 0-.25-.078.411.411 0 0 0-.436.457.29.29 0 0 0 .102.245zm-3.003 3.15v-.231c-.004-.26-.015-.494-.033-.7L37 13.911h-.639l.423 4.396h.752l2.233-4.393H39l-1.302 2.719c-.13.262-.264.572-.4.928zm25.449-7.84l-.15.277a1.49 1.49 0 0 1-.364.465.584.584 0 0 1-.39.131 1.743 1.743 0 0 1-.366-.048v.565c.136.039.276.058.417.057.26.006.516-.075.728-.23.24-.196.389-.444.572-.726l2.01-3.846h-.74l-.855 1.724c-.096.197-.227.51-.394.908h-.019c0-.105-.006-.287-.02-.512A5.668 5.668 0 0 0 63.122 8l-.188-1.63h-.677zm-3.103-2.026h.584a.759.759 0 0 1 .514.154c.122.149.187.28.176.449a.718.718 0 0 1-.244.583c-.195.117-.435.22-.663.205h-.662zM60 5.9h.527A.563.563 0 0 1 61 6c.105.096.18.252.179.417a.773.773 0 0 1-.179.515c-.23.132-.451.196-.675.182h-.576zm-.575-.6l-.9 4.392H60c.399.027.83-.105 1.18-.372.295-.253.457-.632.439-1.025a.881.881 0 0 0-.174-.551.947.947 0 0 0-.445-.308v-.028c.225-.044.471-.18.656-.408a.977.977 0 0 0 .253-.706.874.874 0 0 0-.332-.746 1.606 1.606 0 0 0-.978-.252h-1.17zM54.234 8.57c0-.278.043-.571.129-.82.067-.234.185-.451.344-.633.116-.118.293-.224.465-.231a.457.457 0 0 1 .387.165c.09.128.134.282.127.439 0 .274-.048.509-.141.802-.08.24-.208.458-.377.643-.168.145-.29.234-.474.246-.306 0-.46-.182-.46-.61zm-.485-1.139a3.14 3.14 0 0 0-.209 1.154c-.019.307.065.612.237.864.157.204.4.32.655.308.178 0 .353-.047.508-.136a1.83 1.83 0 0 0 .497-.454h.02l-.055.53h.538L56.904 5h-.677L56 6.1a6.002 6.002 0 0 0-.107.75h-.023a.836.836 0 0 0-.784-.537 1.178 1.178 0 0 0-.777.29 2.011 2.011 0 0 0-.56.83zM52.665 9.51v-.561c-.158.052-.322.145-.491.195a1.831 1.831 0 0 1-.418.057.594.594 0 0 1-.492-.2.725.725 0 0 1-.164-.512V8.4l.006-.093h.125c.481.028.96-.078 1.387-.307a.963.963 0 0 0 .487-.855.825.825 0 0 0-.262-.616 1.11 1.11 0 0 0-.737-.221 1.444 1.444 0 0 0-.866.279c-.24.202-.483.476-.614.791a2.708 2.708 0 0 0-.225 1.107c-.02.343.096.68.323.932.276.233.566.354.898.334.176.002.378-.016.523-.054.18-.045.353-.107.52-.188zm-.322-2.573c.063.064.097.149.093.239a.497.497 0 0 1-.31.455c-.27.12-.565.175-.86.161h-.084c.058-.255.18-.49.354-.683a.728.728 0 0 1 .527-.262c.1-.007.2.025.28.09zM50 6.369h-.7l-.688 3.323h.689zm-.462-.57a.41.41 0 0 0 .257.076c.115.005.205-.04.307-.123a.469.469 0 0 0 .117-.336.295.295 0 0 0-.097-.241c-.122-.055-.122-.082-.25-.077a.411.411 0 0 0-.322.126.476.476 0 0 0-.114.33.29.29 0 0 0 .105.244zm-2.615 5.105c.204-.235.337-.525.383-.836L48 6.905h.626l.108-.539h-.666l.052-.258a1.17 1.17 0 0 1 .186-.424.422.422 0 0 1 .323-.13c.136.004.27.032.371.085l.204-.526C49 5 48.799 5 48.587 5c-.273 0-.587.055-.753.234-.21.237-.346.531-.392.847l-.061.276-.567.23-.061.32h.526L46.646 10a.594.594 0 0 1-.517.59 1.027 1.027 0 0 1-.333-.06v.57c.14.05.287.075.435.07a.936.936 0 0 0 .695-.267zm-.602-4.535h-.687l-.69 3.323h.69zm-.448-.571c.075.054.127.08.257.077a.403.403 0 0 0 .307-.124.467.467 0 0 0 .117-.335.296.296 0 0 0-.096-.242.383.383 0 0 0-.252-.077c-.12-.008-.206.039-.32.126a.473.473 0 0 0-.114.33.29.29 0 0 0 .102.245zm-1.694.668a1.881 1.881 0 0 0-.485.534h-.026l.06-.63h-.536l-.69 3.322h.69l.31-1.502a1.96 1.96 0 0 1 .403-.89c.158-.208.4-.3.658-.3h.3L45 6.346a1.066 1.066 0 0 0-.31-.038.929.929 0 0 0-.511.159zm-2.934 3.23a2.67 2.67 0 0 0 .516-.187v-.561c-.158.052-.322.145-.492.195a1.55 1.55 0 0 1-.417.057.594.594 0 0 1-.492-.2.725.725 0 0 1-.165-.512V8.4l.006-.093h.125c.481.028.96-.078 1.387-.307a1 1 0 0 0 .486-.855.758.758 0 0 0-.261-.616 1.11 1.11 0 0 0-.733-.221 1.444 1.444 0 0 0-.866.279 1.89 1.89 0 0 0-.615.793 2.708 2.708 0 0 0-.226 1.107c-.02.342.097.679.323.931.242.234.567.354.899.334.176.002.352-.017.524-.055zm.197-2.76c.064.064.098.149.093.239a.497.497 0 0 1-.31.455c-.225.12-.564.175-.86.161h-.083a1.5 1.5 0 0 1 .355-.683c.133-.108.363-.25.526-.258.1-.008.199.023.278.086zm-4.155 2.01v-.23c-.004-.26-.015-.494-.033-.716L37 5.3h-.636l.42 4.392h.752L39.77 5.3H39L37.698 8c-.13.281-.264.59-.4.947zM6.35 7.943a.212.212 0 0 0-.254-.007C6 8 6 8.087 6 8.179l1.524 5.292c.026.094.111.159.207.159h1.743a.216.216 0 0 0 .198-.134l2.86-6.806a.225.225 0 0 0-.02-.208.216.216 0 0 0-.18-.1H10.76a.216.216 0 0 0-.201.14l-1.838 4.81-.198-.733a.235.235 0 0 0-.01-.03 7.485 7.485 0 0 0-2.16-2.626zm5.976 5.616c.04.049.101.077.165.077H14c.093 0 .183-.078.2-.184l1.137-6.82a.224.224 0 0 0-.048-.18.214.214 0 0 0-.167-.079h-1.495a.219.219 0 0 0-.213.184l-1.135 6.821c-.01.064.007.13.048.18zM7.76 8.88c.061.12.17.12.239.068.116-.043.166-.146.145-.247L7.785 7v-.054a.79.79 0 0 0-.837-.584H4.905a.223.223 0 0 0-.072.426A6.254 6.254 0 0 1 7.761 8.88zm9.8 4.735c1.956 0 3.235-.94 3.247-2.393.007-.798-.49-1.403-1.561-1.898-.656-.324-1.054-.539-1.054-.874 0-.298.367-.6 1.073-.6h.057a3.34 3.34 0 0 1 1.26.238c.061.024.129.019.185-.014.056-.074.095-.074.106-.155l.177-1.06a.225.225 0 0 0-.15-.247 4.823 4.823 0 0 0-1.49-.227c-1.846 0-3.142.95-3.153 2.307-.011 1.007.927 1.569 1.634 1.903.726.342.97.562.966.869-.005.47-.581.683-1.115.683-.602.018-1.2-.147-1.743-.363a.219.219 0 0 0-.191.01c-.058.033-.098.09-.109.206l-.185 1.059c-.02.106.04.212.14.249a6.185 6.185 0 0 0 1.906.307zm7.226-5.277l.13.662.449 2.062h-1.604zm-3.69 5.3h1.55c.09 0 .17-.056.202-.142.151-.496.313-.842.354-.948h2.48c.044.193.15.703.197.914.022.102.12.174.212.174h1.354c.065 0 .127-.03.168-.082a.225.225 0 0 0 .042-.186l-1.474-6.815c-.022-.101-.11-.174-.182-.174h-1.348A.95.95 0 0 0 23.64 7L20.9 13.327a.226.226 0 0 0 .014.212c.085.062.085.1.182.1zm8.965 4.021H2.287V2.34h27.777v15.32zM31 0H1.386C.62 0 0 .635 0 1.417v17.164c0 .419.145.737.405 1.003.26.266.595.416.98.416H31c.333 0 .685-.15.946-.416a1.36 1.36 0 0 0 .405-1.003V1.417C32.351.634 31.73 0 31 0z"/></g></g></svg>