<svg xmlns="http://www.w3.org/2000/svg" width="66" height="20" viewBox="0 0 66 20"><g><g><path fill="#f9f9f9" d="M62.75 9.09l.947-4.477h.725l-.814 3.85h1.65l-.131.628zm-1.046-.302c-.295.212-.704.364-1.22.364-.43 0-.784-.076-1.066-.23v-.686c.353.199.71.297 1.072.297.28 0 .51-.06.661-.178a.585.585 0 0 0 .242-.499.6.6 0 0 0-.125-.375c-.084-.109-.268-.248-.527-.418a2.39 2.39 0 0 1-.475-.374c-.102-.112-.18-.235-.266-.369v-.442c0-.261 0-.493.139-.695.126-.183.303-.359.533-.47.23-.109.489-.164.776-.164.419 0 .808.094 1.167.282l-.263.585c-.352-.16-.63-.24-.904-.24-.222 0-.448.06-.536.18a.594.594 0 0 0-.202.467c0 .096.016.177.046.253a.62.62 0 0 0 .143.202c.101.062.201.16.412.292.316.198.535.43.689.575.087.184.147.396.147.635 0 .429-.147.765-.443 1.008zM58.91 7.78c0 .429-.147.765-.442 1.008-.295.212-.702.364-1.22.364-.43 0-.785-.076-1.067-.23v-.686c.354.199.71.297 1.072.297.28 0 .5-.06.662-.179a.585.585 0 0 0 .242-.498.49.49 0 0 0-.156-.375c-.053-.109-.23-.248-.497-.418A4.297 4.297 0 0 1 57 6.69a2.184 2.184 0 0 1-.206-.369 1.324 1.324 0 0 1 .108-1.137c.098-.183.303-.359.533-.47.23-.109.488-.164.776-.164.419 0 .789.094 1.167.282l-.264.585c-.328-.16-.63-.24-.903-.24a.798.798 0 0 0-.536.18.594.594 0 0 0-.202.467c0 .096.015.177.046.253a.62.62 0 0 0 .142.202c.065.062.202.16.412.292.317.198.535.43.656.575.12.184.18.396.18.635zM54 8.475V9a.912.912 0 0 1-.307.112c-.122.027-.245.04-.367.04-.56 0-.84-.252-.84-.757 0-.116.017-.25.05-.395l.37-1.751h-.496l.064-.337.582-.251.395-.71h.447l-.159.752h.855l-.12.546h-.848L53.252 8c-.026.113-.04.207-.04.282 0 .088.026.158.077.21.051.052.129.078.233.078.139 0 .293-.031.478-.095zm-2.73.616h-.722l.723-3.388H52zm.264-4.558a.438.438 0 0 1 .337-.128c.129 0 .196.027.263.08.068.055.101.137.101.247 0 .145-.04.268-.122.344-.113.083-.189.125-.322.125a.439.439 0 0 1-.27-.08c-.07-.053-.107-.121-.107-.25 0-.14.04-.252.12-.338zM48.41 6.475a1.94 1.94 0 0 0-.41.645 2.55 2.55 0 0 0-.141.828c0 .197.047.349.141.458.096.11.23.164.404.164.173 0 .336-.08.487-.24.109-.16.27-.33.358-.643a2.69 2.69 0 0 0 .132-.841c0-.41-.158-.616-.475-.616-.165 0-.33.082-.496.245zM48 9a.761.761 0 0 1-.356-.387h-.03l-.197.478h-.545l1.011-4.766h.72l-.218 1.02a8.773 8.773 0 0 1-.116.48c-.051.175-.092.334-.123.43h.025c.184-.255.352-.39.505-.48a.983.983 0 0 1 .493-.133c.297 0 .527.106.693.358.138.17.248.462.248.833 0 .413-.11.8-.213 1.167-.142.358-.337.642-.584.846a1.249 1.249 0 0 1-.814.306c-.2 0-.372-.046-.499-.152zm-2.665-.59a.958.958 0 0 0 .294-.41c.07-.178.104-.37.104-.578 0-.422-.182-.613-.545-.613a.793.793 0 0 0-.293.058c-.09.04-.171.133-.242.133-.07.073-.13.14-.179.212a.985.985 0 0 0-.12.25c-.03.096-.043.212-.04.349 0 .189.051.405.152.542a.503.503 0 0 0 .43.205.69.69 0 0 0 .439-.149zM43.799 6.48c.123-.41.292-.76.505-1.05.213-.29.47-.51.769-.659.299-.149.649-.223 1.049-.223.239 0 .446.025.622.076l-.132.595a1.929 1.929 0 0 0-.554-.068c-.419 0-.763.132-1.058.397-.244.264-.445.665-.578 1.202h.018c.256-.347.56-.52.999-.52.318 0 .561.1.746.302.178.202.268.467.268.834 0 .33-.07.633-.21.922-.14.283-.33.498-.568.644-.24.146-.515.22-.827.22-.396 0-.701-.153-.915-.368-.213-.245-.32-.598-.32-1.06 0-.419.062-.833.186-1.244zm-1.228.149c.219.211.329.503.329.874 0 .329-.072.618-.215.867a1.435 1.435 0 0 1-.624.577c-.274.136-.605.204-.993.204-.437 0-.8-.08-1.068-.242v-.664c.322.204.671.306 1 .306.382 0 .657-.085.855-.254.198-.17.297-.404.297-.705A.897.897 0 0 0 42 7.077c-.164-.13-.356-.194-.613-.194-.194 0-.387.035-.69.117l-.269-.219L41 4.613h2.224l-.137.64h-1.55l-.325 1.115c.19-.037.348-.055.475-.055.37 0 .664.105.884.317zm-3.417 2.46h-2.846l.11-.55 1.443-1.293c.36-.325.603-.56.73-.707.128-.147.22-.284.278-.41.057-.13.131-.259.131-.402 0-.174-.096-.311-.197-.412-.1-.101-.243-.152-.427-.152a.703.703 0 0 0-.376.092c-.19.061-.364.173-.57.334l-.353-.49c.245-.198.481-.34.708-.424.215-.085.46-.127.698-.127.37 0 .664.095.882.285.219.166.328.446.328.769 0 .22-.04.397-.12.615-.08.19-.205.385-.376.583-.197.199-.462.473-.87.823l-.953.809v.024h1.905zM19.52 13.759a.227.227 0 0 1-.304.03l-1.433-1.121a.221.221 0 0 1-.042-.3l.184-.258C18 12.064 18 12 18.06 12c.054 0 .11 0 .153.064l.919.714c.094.07.226.056.304-.03l1.294-1.436a.196.196 0 0 1 .142-.069c.054-.002.128.019.128.058l.242.22a.227.227 0 0 1 .01.308zm-2.277-1.22c0 .462.114.869.332 1.247a.1.1 0 0 1-.013.154c-.35.34-.787.573-1.262.675-.825 0-4.123-2.614-4.123-5.467 0-.03.04-2.916.049-2.974.032-.235.134-.173.198-.173.575 0 1.169 0 1.735-.165 1.076-.327 1.774-1.22 2.141-1.22s1.322.891 2.396 1.22C19.185 6 19.69 6 20.192 6c.066 0 .218 0 .218.268l.013 2.88a4.021 4.021 0 0 1-.128.984.124.124 0 0 1-.179.102 1.867 1.867 0 0 0-.609-.088c-1.278.03-2.29 1.1-2.263 2.392zM2.314 17.66h28.099V2.338h-28.1zM31.324 0c.373 0 .73.149.992.415.263.266.411.585.411 1.002v17.164c0 .419-.147.737-.41 1.003-.263.267-.62.416-.992.416H1.402C1 20 .673 19.85.41 19.584A1.355 1.355 0 0 1 0 18.581V1.417A1.41 1.41 0 0 1 1.402 0zm25.56 17.722l-.487-3.353h.685L57.27 16c.018.088.033.262.047.488.014.225.021.407.021.512h.018c.17-.397.302-.711.399-.908l.866-1.724h.75l-2.033 3.846c-.138.282-.338.53-.58.725a1.229 1.229 0 0 1-.758.23 1.485 1.485 0 0 1-.4-.056v-.565c.121.03.245.045.4.048a.633.633 0 0 0 .365-.13c.153-.13.277-.289.367-.466zM55 17.104c.06.054.141.08.222.073.153-.004.304-.035.446-.093v.538c-.09.041-.184.071-.28.09-.117.026-.236.04-.388.04a.642.642 0 0 1-.555-.168.703.703 0 0 1-.222-.584c.002-.124.018-.255.047-.385l.358-1.713h-.479l.063-.33.561-.247.38-.697h.432l-.152.74h.824l-.114.538h-.82L55 16.625a.493.493 0 0 0-.075.276c-.003.099.024.15.075.205zm-1.253-2.734L53 17.692h-.647L53 14.37zm-.454-.572a.288.288 0 0 1-.101-.243.47.47 0 0 1 .115-.33.418.418 0 0 1 .325-.126.39.39 0 0 1 .255.076c.113.06.113.15.113.242a.51.51 0 0 1-.135.336.408.408 0 0 1-.31.123.422.422 0 0 1-.262-.078zM51.09 15c.128-.218.295-.394.488-.533a.949.949 0 0 1 .525-.158c.108-.001.215.01.32.036L52.27 15H52c-.295 0-.54.092-.7.3-.209.257-.3.563-.408.89l-.312 1.502h-.698l.7-3.321h.543l-.061.629zm-4.481 1.125L47 14.373h.666l-.38 1.833c-.048.19-.078.384-.092.58a.35.35 0 0 0 .09.295.34.34 0 0 0 .285.105A.65.65 0 0 0 48 17c.148-.121.275-.288.365-.475.116-.235.2-.525.251-.743l.292-1.41h.685l-.685 3.323h-.546l.061-.615H48.4a1.787 1.787 0 0 1-.506.512c-.17.108-.366.164-.567.164a.801.801 0 0 1-.608-.23.918.918 0 0 1-.217-.656c0-.125.012-.25.036-.374zm-.849 1.415c-.28.143-.588.216-.902.213-.33.02-.653-.094-.858-.318a1.12 1.12 0 0 1-.36-.911 2.846 2.846 0 0 1 .218-1.131c.142-.318.338-.593.61-.797.258-.19.532-.29.891-.287.303-.004.641.058.879.183L46 15a2.495 2.495 0 0 0-.623-.114.863.863 0 0 0-.739.462c-.206.342-.309.739-.295 1.14a.727.727 0 0 0 .165.512c.12.125.286.19.492.182.104 0 .243-.022.374-.067.13-.046.258-.115.381-.115zm-3.014-.03c-.167.08-.342.143-.527.187-.219.039-.348.058-.524.058-.336.02-.695-.101-.91-.334a1.275 1.275 0 0 1-.327-.932 2.69 2.69 0 0 1 .229-1.107c.132-.315.313-.589.62-.791.256-.185.563-.282.877-.28.264-.016.526.061.74.218.18.152.278.38.265.616a.972.972 0 0 1-.492.855 2.66 2.66 0 0 1-1.403.307h-.127l-.005.093v.088a.718.718 0 0 0 .166.512.6.6 0 0 0 .498.2c.174 0 .285-.018.423-.056.171-.05.337-.144.497-.196zm-.328-2.574a.406.406 0 0 0-.276-.085c-.205.007-.398.149-.533.258-.177.192-.3.427-.359.683h.086c.298.014.595-.041.87-.161a.498.498 0 0 0 .312-.456.3.3 0 0 0-.1-.24zm-2.793.847c.118.217.18.4.178.62.018.378-.14.744-.427.988-.376.255-.756.382-1.178.358a2.105 2.105 0 0 1-1.028-.226v-.673c.314.15.67.287 1.034.292.226.012.45-.05.639-.142a.68.68 0 0 0 .233-.523c.002-.133-.076-.263-.076-.369a3.859 3.859 0 0 0-.554-.41 2.008 2.008 0 0 1-.446-.366 1.376 1.376 0 0 1-.239-.332 1.466 1.466 0 0 1-.076-.465c-.004-.24.059-.476.182-.682.133-.2.302-.361.514-.461a1.68 1.68 0 0 1 .75-.163c.392-.002.779.092 1.126.276L40 14.08a1.98 1.98 0 0 0-.869-.23.864.864 0 0 0-.517.151.678.678 0 0 0-.195.486.64.64 0 0 0 .044.248.608.608 0 0 0 .137.198c.124.068.257.203.4.287.245.141.46.333.63.563z"/></g></g></svg>