<svg xmlns="http://www.w3.org/2000/svg" width="68" height="20" viewBox="0 0 68 20"><g><g><path fill="#f9f9f9" d="M67.272 17.083h-1.544l.272-1.37h1.446l.117-.61h-1.437l.24-1.187h1.542L68 13.3h-2.191l-.882 4.392h2.222zm-5.484.005l.65-3.188h.418a.97.97 0 0 1 .737.29c.183.24.272.541.251.81.007.404-.062.769-.2 1.106a1.535 1.535 0 0 1-1.466.986h-.39zm2.335-3.348a1.575 1.575 0 0 0-1.194-.435h-1.057L61 17.692h1.14c.45.012.86-.101 1.286-.327.363-.216.653-.542.834-.935.199-.43.297-.931.286-1.43a1.764 1.764 0 0 0-.418-1.265zm-4.453.397c.163.23.243.511.226.796a3.44 3.44 0 0 1-.172 1.123c-.097.305-.266.58-.493.797-.231.147-.448.286-.712.286-.247.014-.519-.139-.651-.282a1.228 1.228 0 0 1-.233-.802c-.004-.382.057-.76.181-1.12.1-.307.273-.582.503-.8.197-.186.453-.29.681-.289a.794.794 0 0 1 .676.285zm.534-.454a1.421 1.421 0 0 0-1.118-.448 1.733 1.733 0 0 0-1.086.352 2.214 2.214 0 0 0-.797 1.014 3.51 3.51 0 0 0-.282 1.461c-.025.454.079.938.407 1.243.304.313.672.476 1.148.449.393.008.78-.11 1.106-.34.336-.251.596-.597.75-.997.19-.473.283-.981.276-1.494.027-.453-.116-.923-.399-1.245zm-4.07.246c.132.071.26.071.384.174l.269-.586a2.236 2.236 0 0 0-1.114-.276 1.977 1.977 0 0 0-1.151.348 2.393 2.393 0 0 0-.806 1.019 3.48 3.48 0 0 0-.303 1.451c-.023.457.124.941.412 1.249.292.308.697.47 1.112.446A2.84 2.84 0 0 0 56 17.552v-.615a2.633 2.633 0 0 1-.934.205.852.852 0 0 1-.698-.288 1.307 1.307 0 0 1-.236-.854 2.931 2.931 0 0 1 .208-1.099c.114-.307.305-.577.554-.78.227-.177.504-.27.787-.267.155-.003.319.02.458.069zM51.93 17.7c.174-.045.343-.108.506-.188v-.562c-.155.051-.316.146-.437.196a2.158 2.158 0 0 1-.454.057.571.571 0 0 1-.482-.202.726.726 0 0 1-.163-.51v-.09l.006-.093H51c.502.028 1-.078 1.39-.307a.967.967 0 0 0 .476-.855.767.767 0 0 0-.256-.616 1.072 1.072 0 0 0-.718-.217c-.304-.003-.601.094-.892.279-.222.202-.43.475-.558.791-.15.348-.225.726-.221 1.107a1.3 1.3 0 0 0 .316.932c.237.233.555.354.88.334.174 0 .347-.019.517-.058zm.193-2.762a.316.316 0 0 1 .092.24.498.498 0 0 1-.304.454c-.265.121-.553.176-.842.161H51c0-.255.164-.49.335-.682.13-.11.317-.25.516-.258.149-.01.149.02.278.084zm-2.789-.469c-.19.139-.335.315-.475.532h-.026l.06-.628h-.525l-.674 3.32h.674l.303-1.502c.057-.327.193-.633.396-.89.154-.208.391-.3.644-.3H50l.154-.655a1.204 1.204 0 0 0-.31-.036.896.896 0 0 0-.506.158zm-4.464-.097l-.353 1.754-.068.372a2.047 2.047 0 0 0-.034.374.938.938 0 0 0 .209.655c.156.16.375.244.59.23.194.001.385-.055.55-.163.235-.134.36-.309.489-.512h.023l-.06.615h.53l.667-3.323h-.667l-.284 1.41c-.048.217-.13.508-.244.743-.086.187-.219.353-.36.474a.586.586 0 0 1-.41.186.322.322 0 0 1-.277-.104.357.357 0 0 1-.087-.295c.013-.196.043-.39.09-.58l.368-1.833h-.67zm-1.18 3.17V17c-.12 0-.243.07-.369.115a1.17 1.17 0 0 1-.396.067.56.56 0 0 1-.443-.182.743.743 0 0 1-.16-.512c-.013-.401.086-.798.286-1.14a.806.806 0 0 1 .716-.462c.22.008.435.062.675.114l.159-.508a1.936 1.936 0 0 0-.85-.183 1.405 1.405 0 0 0-.866.287c-.262.204-.443.48-.59.796a2.943 2.943 0 0 0-.21 1.132c-.02.335.09.664.357.91.19.225.504.34.823.319.303.003.603-.07.873-.213zm-3.42.157c.174-.044.343-.107.505-.187v-.562c-.154.051-.315.146-.481.196a1.648 1.648 0 0 1-.41.057.575.575 0 0 1-.482-.202.73.73 0 0 1-.162-.51v-.09l.006-.093h.126a2.51 2.51 0 0 0 1.36-.307c.267-.171.481-.5.476-.855a.923.923 0 0 0-.209-.616c-.255-.157-.509-.234-.765-.217a1.398 1.398 0 0 0-.85.279 1.88 1.88 0 0 0-.6.791 2.75 2.75 0 0 0-.221 1.107 1.3 1.3 0 0 0 .316.932c.237.233.555.354.88.334.172 0 .343-.019.51-.058zm.193-2.761a.316.316 0 0 1 .092.24.498.498 0 0 1-.304.454c-.252.12-.553.176-.842.161h-.082c.056-.255.176-.49.347-.682.13-.11.325-.25.516-.258a.383.383 0 0 1 .273.084zm-3.319.283c-.145-.084-.265-.22-.385-.287a.602.602 0 0 1-.133-.199.656.656 0 0 1-.043-.247.692.692 0 0 1 .189-.487.822.822 0 0 1 .501-.15c.295.008.584.088.845.23l.246-.574c-.365-.184-.71-.279-1.09-.276-.275-.004-.5.051-.727.162-.206.1-.379.26-.498.462-.12.205-.18.442-.176.682a1.48 1.48 0 0 0 .074.464c.052.104.127.227.22.332.133.142.281.265.443.367.184.11.389.248.493.41a.608.608 0 0 1 .117.369A.711.711 0 0 1 37 17a1.254 1.254 0 0 1-.624.142c-.376-.004-.698-.142-1.002-.291v.673c.309.16.626.238.997.225.409.025.813-.102 1.14-.357.279-.245.432-.61.414-.989.004-.22-.054-.403-.167-.62a1.996 1.996 0 0 0-.613-.563zM53.34 5.852a2.15 2.15 0 0 0-.476.518h-.026l.06-.615h-.526l-.676 3.323h.676l.303-1.503a1.98 1.98 0 0 1 .396-.889.83.83 0 0 1 .644-.34c.1.002.199.016.285.043l.157-.658a.985.985 0 0 0-.309-.036.897.897 0 0 0-.507.157zm-2.876 3.23C50.638 9 50.807 9 51 8.895v-.562c-.185.08-.346.146-.512.195a1.49 1.49 0 0 1-.409.057.6.6 0 0 1-.483-.189.78.78 0 0 1-.161-.523v-.088l.006-.093h.124c.435.029.94-.078 1.358-.307.298-.171.482-.5.477-.855a.766.766 0 0 0-.257-.615 1.076 1.076 0 0 0-.716-.218 1.284 1.284 0 0 0-.85.303 1.495 1.495 0 0 0-.577.768 2.424 2.424 0 0 0-.246 1.107 1.3 1.3 0 0 0 .317.931c.237.194.556.354.929.334.124 0 .296-.019.465-.058zm.193-2.761c.063.062.096.15.092.24a.461.461 0 0 1-.303.439c-.265.136-.554.19-.842.176h-.084c.057-.255.177-.49.348-.682a.71.71 0 0 1 .517-.259.385.385 0 0 1 .273.085zm-3.244 2.17a.29.29 0 0 1-.074-.207c.003-.094.015-.186.037-.284l.35-1.71h.793l.111-.539h-.792L48 5h-.433l-.368.708-.545.292-.06.285h.464L46.71 8a1.97 1.97 0 0 0-.046.393.822.822 0 0 0 .216.607c.119.113.365.175.569.135.116 0 .23-.014.344-.04.093-.018.206-.095.272-.095v-.533a1.2 1.2 0 0 1-.432.093.288.288 0 0 1-.217-.07zm-1.548-.78a.914.914 0 0 0-.192-.274 2.251 2.251 0 0 0-.427-.304 1.357 1.357 0 0 1-.386-.27.348.348 0 0 1-.095-.24.327.327 0 0 1 .13-.277.552.552 0 0 1 .34-.099c.268.009.53.088.765.23l.214-.528a1.929 1.929 0 0 0-.99-.252 1.088 1.088 0 0 0-.828.303c-.206.142-.32.412-.307.691-.004.178.048.309.148.495.138.173.31.313.506.41.146.08.257.178.404.293.065.111.1.166.1.263a.38.38 0 0 1-.173.328.77.77 0 0 1-.45.12 1.683 1.683 0 0 1-.892-.27v.61c.268.142.603.21.921.2.347.021.666-.077.94-.28a.984.984 0 0 0 .337-.8.85.85 0 0 0-.068-.349zm-4.503.704A.694.694 0 0 1 41.246 8c0-.327.043-.606.128-.872.069-.233.186-.448.344-.629a.628.628 0 0 1 .459-.23.435.435 0 0 1 .351.16.64.64 0 0 1 .135.425c.003.292-.047.582-.147.854-.08.232-.205.444-.369.623-.147.138-.284.22-.46.23a.381.381 0 0 1-.323-.146zm1.075.133h.017l-.058.53h.516l.676-3.324h-.516l-.174.477h-.028a.81.81 0 0 0-.79-.539c-.284.002-.557.111-.768.308a2.056 2.056 0 0 0-.549.837A3.239 3.239 0 0 0 40.564 8c-.018.279.065.582.235.83.201.17.391.318.639.309.403-.022.773-.24.999-.59zm-4.733.53l1.843-3.649h.017c-.09.313-.172.655-.246 1.028l-.524 2.62h.653l.873-4.393h-.985L37.6 8.136h-.017l-.313-3.452h-.924l-.885 4.393h.627l.527-2.626a9.07 9.07 0 0 0 .157-1.022h.018l.329 3.648zm-18.607-2.97c1.978.03 3.566 1.71 3.566 3.775 0 2.063-1.588 3.744-3.566 3.774-.81 0-1.597-.291-2.226-.824a4.956 4.956 0 0 0-.004-5.897 3.448 3.448 0 0 1 2.23-.828zm-5.783 8.551a4.362 4.362 0 0 0 2.867-1.081C17 14.296 18 14.69 19.092 14.69c2.545 0 4.609-2.152 4.609-4.807 0-2.655-2.064-4.808-4.609-4.808-1.092 0-2.092.396-2.916 1.118a4.36 4.36 0 0 0-2.862-1.077c-2.525 0-4.572 2.135-4.572 4.77 0 2.634 2.046 4.769 4.571 4.77zm16.147 3H2.241V2.34h27.222v15.32zM30.346 0H1.358C.608 0 0 .635 0 1.417v17.164c0 .419.143.737.397 1.003.255.266.603.416.961.416h28.988c.36 0 .707-.15.962-.416.254-.266.397-.584.397-1.003V1.417C31.705.634 31.096 0 30.346 0z"/></g></g></svg>