<svg xmlns="http://www.w3.org/2000/svg" width="72" height="20" viewBox="0 0 72 20"><g><g><path fill="#f9f9f9" d="M69.315 15.846l.506-1.01c.179-.3.294-.607.418-.922 0 .086.006.244.016.419s.056.667.134 1.513zm1.242 1.846h.689l-.489-4.399H70l-2.354 4.4h.747l.607-1.22h1.436zm-3.055 0l.126-.615H66l.824-3.777h-.697l-.91 4.392zm-4.002.49c-.08-.095-.185-.182-.303-.182l.122-.258c-.103.01-.21.013-.319.007-.04.002-.08.002-.12 0l-.256.448c.106.01.21.04.303.092.073.037.073.108.073.184 0 .193-.104.289-.373.289a.974.974 0 0 1-.283-.043v.406c.114.03.23.046.348.045a1.15 1.15 0 0 0 .66-.17.638.638 0 0 0 .24-.515.494.494 0 0 0-.09-.303zm-.587-.49h.43l-.024.05c.332-.035.634-.156.89-.35.287-.245.444-.61.426-.989.004-.219-.056-.403-.17-.62h-.002a2.045 2.045 0 0 0-.63-.563c-.14-.084-.273-.22-.396-.287a.606.606 0 0 1-.137-.199.64.64 0 0 1-.045-.247.682.682 0 0 1 .195-.487.897.897 0 0 1 .55-.15c.268.008.565.087.833.23l.253-.574A2.31 2.31 0 0 0 64 13.23a1.713 1.713 0 0 0-.781.163c-.219.1-.39.26-.512.461a1.287 1.287 0 0 0-.181.682c-.003.149.023.296.075.464.055.104.131.226.228.333.171.14.288.264.454.366.19.11.36.248.507.41.08.106.123.236.121.369a.69.69 0 0 1-.233.522c-.187.093-.41.155-.678.143-.32-.005-.675-.143-1-.292v.673c.289.141.595.218.88.226zM61.26 13.3l-.585 2.812c-.043.293-.17.566-.366.786a.932.932 0 0 1-.676.242.883.883 0 0 1-.53-.139c-.103-.157-.186-.33-.176-.507.003-.16.073-.32.073-.493l.554-2.7h-.698l-.568 2.7a2.415 2.415 0 0 0-.059.517c-.022.342.106.677.349.916.277.227.629.34.985.318.437.022.85-.116 1.186-.389.33-.362.545-.736.612-1.191L62 13.298h-.742zm-4.26.616h1.143l.127-.616h-2.936l-.133.616h1.116l-.777 3.777h.697zm-2.45.454h-.693l-.693 3.323h.695zm-2.32 3.322l.403-1.961c.04-.18.063-.361.068-.544a.905.905 0 0 0-.217-.65.802.802 0 0 0-.61-.23 1.046 1.046 0 0 0-.562.16c-.201.135-.372.31-.503.534h-.027l.061-.634h-.54l-.694 3.326h.695l.288-1.409c.049-.283.132-.5.247-.731.09-.19.216-.358.371-.495.115-.057.263-.166.418-.172a.312.312 0 0 1 .286.115c.086.064.086.172.086.28v.393l-.463 2.02h.694zM47 16.568c0-.28 0-.568.09-.825.07-.234.19-.45.353-.63.118-.113.289-.223.47-.23a.622.622 0 0 1 .363.117.842.842 0 0 1 .138.47 2.36 2.36 0 0 1-.152.852c-.082.233-.21.446-.379.624a.678.678 0 0 1-.474.23.356.356 0 0 1-.333-.176c-.076-.106-.132-.269-.076-.432zm1.18.595h.022l-.065.53h.536l.695-3.324h-.53l-.181.477h-.03a.833.833 0 0 0-.812-.538 1.309 1.309 0 0 0-.815.307 2.283 2.283 0 0 0-.538.837 3.12 3.12 0 0 0-.204 1.136c-.019.306.067.609.241.858a.793.793 0 0 0 .656.308c.415-.022.845-.24 1.027-.59zm-2.683-.006h-1.43l1.833-2.278.1-.51h-2.066l-.115.538h1.289l-1.87 2.347-.081.438h2.231zM39.23 15l.062-.63h-.542l-.694 3.322h.694l.25-1.409c.103-.364.242-.71.447-1.015a.651.651 0 0 1 .553-.385c.149-.007.25.036.317.117a.336.336 0 0 1 .073.289c-.005.129-.022.258-.05.384l-.42 2.02h.691l.297-1.446c.092-.355.198-.693.402-.989.126-.258.348-.353.593-.372a.307.307 0 0 1 .272.114c.07.064.101.168.084.27a2.482 2.482 0 0 1-.056.4l-.421 2.022h.692l.412-1.962c.037-.18.059-.36.114-.544 0-.186-.108-.465-.254-.647a.752.752 0 0 0-.596-.231c-.207.001-.41.063-.584.178a1.773 1.773 0 0 0-.502.514H41c0-.183 0-.37-.183-.503a.695.695 0 0 0-.524-.19c-.44.024-.833.28-1.036.693zM38 12.737a.407.407 0 0 0 .141-.336c.007-.092-.029-.181-.141-.242 0-.055-.118-.082-.21-.076a.414.414 0 0 0-.323.125.471.471 0 0 0-.114.331.29.29 0 0 0 .102.243c.177.12.41.1.545-.045zm-1 4.955l.941-4.393h-.691l-.916 4.393zm25.147-8.615l.404-1.962c.04-.179.062-.361.068-.544a.906.906 0 0 0-.217-.65.825.825 0 0 0-.61-.23 1.045 1.045 0 0 0-.562.16c-.23.149-.372.311-.504.516H60.7l.061-.616h-.541l-.695 3.326h.695l.288-1.409c.049-.254.132-.5.247-.732.09-.188.245-.357.371-.495a.65.65 0 0 1 .418-.171.336.336 0 0 1 .286.101.348.348 0 0 1 .093.293 2.29 2.29 0 0 1-.053.394l-.417 2.02zm-2.892-3.322h-.693l-.694 3.323h.694zm-.45-.571a.473.473 0 0 0 .258.077.407.407 0 0 0 .309-.123c.082-.138.124-.213.117-.336a.293.293 0 0 0-.097-.242.387.387 0 0 0-.253-.077.39.39 0 0 0-.323.126.471.471 0 0 0-.115.33.333.333 0 0 0 .103.244zm-2.058 1.692c0 .28-.042.559-.127.825a1.66 1.66 0 0 1-.345.63.616.616 0 0 1-.467.237.482.482 0 0 1-.388-.161.635.635 0 0 1-.136-.407c0-.321.052-.597.151-.857.083-.236.214-.452.385-.632a.679.679 0 0 1 .473-.24c.304 0 .455.202.455.605zm-.067 1.966c.254-.224.447-.51.56-.842.14-.354.21-.744.207-1.135A1.407 1.407 0 0 0 57.209 6a.797.797 0 0 0-.66-.302c-.417.029-.795.302-1.012.625h-.026l.06-.565H55l-1 4.797h.72l.28-1.39c0-.165.065-.37.078-.558h.03c.13.326.445.536.791.53.287-.001.564-.137.78-.298zM49 8.846c.225.208.537.313.853.293.229.003.457-.034.674-.139.224 0 .473-.166.621-.314l.277.393h.815l-.606-.838c.366-.392.673-.856.874-1.364h-.683c-.117.328-.298.63-.53.886l-.692-.98a2.53 2.53 0 0 0 .864-.576c.17-.207.264-.436.263-.692.011-.249-.088-.515-.27-.656-.21-.172-.46-.26-.745-.244-.322-.015-.637.1-.875.32-.226.227-.346.54-.331.86.01.303.1.596.259.851a2.47 2.47 0 0 0-.844.616 1.184 1.184 0 0 0-.251.738c-.018.331.095.63.327.846zm.541-.461A.548.548 0 0 1 49.376 8a.812.812 0 0 1 .143-.499A2.24 2.24 0 0 1 50 7.075l.827 1.145a1.8 1.8 0 0 1-.424.246 1.137 1.137 0 0 1-.403.082.613.613 0 0 1-.459-.163zM51 5.284c0 .083.08.195.071.308-.001.14-.071.277-.151.408-.172.137-.37.273-.587.372a1.034 1.034 0 0 1-.182-.603.637.637 0 0 1 .138-.427.49.49 0 0 1 .394-.163.532.532 0 0 1 .317.104zm-3.504 1.59c0 .28-.042.559-.127.825A1.442 1.442 0 0 1 47 8.33a.548.548 0 0 1-.443.236.482.482 0 0 1-.388-.16C46.071 8.276 46 8.117 46 8c0-.323.084-.599.184-.858a1.78 1.78 0 0 1 .383-.633A.677.677 0 0 1 47 6.27c.345 0 .497.201.497.604zm-.067 1.966c.254-.224.447-.51.571-.84.129-.356.199-.745.196-1.137A1.714 1.714 0 0 0 48 6c-.2-.201-.446-.316-.702-.304-.418.03-.795.304-1.013.625h-.026l.062-.564h-.544l-.995 4.802h.692l.282-1.392c.036-.167.062-.37.075-.556h.022c.147.325.445.535.792.53.288-.002.567-.141.784-.302zm-2.615-3.086h-.692l-.695 3.323h.695zm-.45-.572a.415.415 0 0 0 .259.077.41.41 0 0 0 .309-.123C45 5 45.056 4.923 45 4.8c.056-.092 0-.18 0-.241a.643.643 0 0 0-.3-.078.415.415 0 0 0-.325.127c-.079.09-.12.21-.115.33a.333.333 0 0 0 .103.245zm-1.875 3.895l.408-1.962c.042-.172.103-.347.103-.523 0-.242-.096-.48-.249-.666a.792.792 0 0 0-.614-.23c-.137 0-.363.049-.522.14-.193.164-.362.277-.495.462h-.024l.058-.229c.09-.334.161-.628.215-.88l.164-.788h-.692l-.969 4.676h.694l.289-1.403c.062-.37.205-.674.42-1.028a.795.795 0 0 1 .616-.375.341.341 0 0 1 .29.106c.074.08.107.19.09.3-.008.129-.025.258-.054.384L41.8 9.077zm-2.773-3.595L40 4.896a2.397 2.397 0 0 0-1.153-.276 1.858 1.858 0 0 0-1.183.38 2.058 2.058 0 0 0-.83 1 3.318 3.318 0 0 0-.311 1.44c-.028.455.12.904.414 1.25.3.31.717.471 1.143.447.376 0 .749-.068 1.1-.201V8.32a2.847 2.847 0 0 1-.968.204.884.884 0 0 1-.716-.286 1.245 1.245 0 0 1-.243-.828c-.005-.41.068-.769.213-1.125.117-.285.314-.577.534-.78.27-.177.554-.272.845-.268a1.49 1.49 0 0 1 .477.07c.136.047.268.106.394.175zM22.629 11.46a.4.4 0 0 1-.4.398H20a.4.4 0 0 1-.402-.398v-1.342A.4.4 0 0 1 20 9.72h.05v-.515c0-.595.476-1.077 1.062-1.077.586 0 1.061.482 1.061 1.077v.516h.054a.4.4 0 0 1 .4.398v1.343zm-5.397-.9l.492.533-.851.636-.35-.636a6.93 6.93 0 0 1-.244-.533 2.47 2.47 0 0 1-.279.533l-.322.636-.875-.636.53-.533c.136-.137.282-.263.437-.377a5.908 5.908 0 0 1-.573-.084L14.464 10l.34-1 .658.282c.047.022.146.077.302.163v-.24a.54.54 0 0 1 .088-.292l-.082-.639h1.043l-.075.642a.542.542 0 0 1 .087.288v.26l.022-.012c.153-.077.234-.123.303-.154L17.808 9l.326 1-.727.139c-.196.03-.407.048-.592.05.185.112.286.235.415.369zm-.622-.985c.054-.193.094-.39.118-.574l.01-.084a.528.528 0 0 0-.443-.242c-.14-.001-.295.054-.374.153a.535.535 0 0 0-.07.086l.012.087c.016.114.054.31.137.574a78.47 78.47 0 0 1-.236-.13v.276h1.061v-.256c-.043.023-.115.06-.215.11zm-4.194.985l.49.533-.85.637-.35-.637a6.656 6.656 0 0 1-.244-.533c-.073.182-.155.36-.247.533l-.354.637-.861-.637.517-.533c.135-.137.281-.263.483-.377a5 5 0 0 1-.62-.084L9.646 10 10 9l.644.282c.069.032.242.13.515.292-.058-.264-.096-.46-.159-.574v-.726h1L11.912 9a4.056 4.056 0 0 1-.12.574c.121-.06.208-.1.208-.122.162-.077.263-.123.333-.154L13 9l.316 1-.727.139c-.196.03-.394.048-.589.05.145.113.284.235.414.369zM10 6.159C8.885 6.153 8 7.064 8 8.2v3.6c0 1.136.884 2.05 2 2.045h12.585c1.12.006 2.033-.907 2.047-2.042v-3.6c-.012-1.137-.927-2.05-2.047-2.046zm20.283 11.5H2.304V2.34h27.98v15.32zM31.193 0H1.396C.626 0 0 .635 0 1.417v17.164c0 .419.146.737.408 1.003.262.266.592.416.988.416h29.797c.37 0 .726-.15.988-.416s.41-.584.408-1.003V1.417A1.36 1.36 0 0 0 32.18.415 1.387 1.387 0 0 0 31.193 0z"/></g></g></svg>