<svg xmlns="http://www.w3.org/2000/svg" width="20" height="20" viewBox="0 0 20 20"><g><g><g><path fill="#fff" d="M.5 19.507l1.343-4.88A9.226 9.226 0 0 1 .579 9.917C.582 4.725 4.826.5 10 .5c2.572.001 4.947.982 6.734 2.762C18.52 5 19.504 7.41 19.503 9.925c-.002 5.193-4.247 9.419-9.503 9.419a9.446 9.446 0 0 1-4.484-1.147z"/></g><g><path fill="#fff" d="M.499 19.753a.249.249 0 0 1-.24-.313l1.315-4.781A9.635 9.635 0 0 1 .329 9.916C.332 4.586 4.688.25 10 .25c2.636.001 5.076 1.008 6.91 2.835a9.588 9.588 0 0 1 2.84 6.838c-.001 5.33-4.358 9.667-9.75 9.667-1.55 0-3.121-.39-4.517-1.13l-4.92 1.285a.216.216 0 0 1-.064.008z"/></g><g><path fill="#cfd8dc" d="M10 0C4.55 0 .082 4.447.08 9.914c-.001 1.671.423 3.317 1.226 4.775L0 19.373c0 .17 0 .354.144.48A.5.5 0 0 0 .5 20h.126l4.828-1.277A9.978 9.978 0 0 0 10 19.837c5.53 0 10-4.448 10-9.915 0-2.65-1-5.14-2.914-7.014C15.204 1 12.702 0 10 0zm0 .496c2.57.001 4.946.983 6.732 2.762 1.786 1.742 2.77 4.147 2.77 6.663-.003 5.194-4.248 9.419-9.502 9.419a9.452 9.452 0 0 1-4.486-1.147L.5 19.503l1.342-4.88A9.24 9.24 0 0 1 .578 9.914C.58 4.721 4.824.496 10 .496"/></g><g><path fill="#40c351" d="M15.597 4.386C14.112 2.906 12.138 2.09 10 2.09c-4.3 0-7.828 3.512-7.83 7.827 0 1.48.415 2.92 1.202 4.167l.188.296-.795 2.889 2.977-.777.258.17a8.029 8.029 0 0 0 4 1.09c4.37 0 7.897-3.511 7.899-7.828a7.763 7.763 0 0 0-2.302-5.538z"/></g><g><path fill="#fff" d="M7.673 6c-.177-.42-.363-.428-.532-.435C7 5.56 6.846 5.56 6.688 5.56a.87.87 0 0 0-.63.295c-.217.235-.828.805-.828 1.963 0 1.182.847 2.278.965 2.434.118.157 1.636 2.61 4.039 3.554 1.997.784 2.403.628 2.837.589.433-.04 1.399-.57 1.596-1.12.196-.549.196-1.02.138-1.118-.06-.098-.217-.157-.453-.275-.237-.118-1.352-.687-1.616-.766-.217-.116-.374-.116-.532.118-.204.236-.61.766-.749.923-.138.157-.276.177-.512.059S9.945 11.85 9 11c-.66-.576-1.135-1.347-1.273-1.583-.138-.234-.015-.362.103-.48.107-.105.237-.274.355-.412.118-.137.158-.236.236-.393.08-.132.04-.294-.02-.412-.058-.118-.517-1.282-.728-1.72z"/></g></g></g></svg>