<svg xmlns="http://www.w3.org/2000/svg" width="15" height="24" viewBox="0 0 15 24"><g><g><g><path fill="#fff" d="M3.796 17.68c.204.32.11.762-.219.97l-1.057.668 4.98 3.147 4.98-3.147-1.057-.669a.702.702 0 1 1 .75-1.188l1.998 1.263a.703.703 0 0 1 0 1.188l-6.296 3.98a.907.907 0 0 1-.75 0l-6.296-3.98a.703.703 0 0 1 0-1.188l1.998-1.263a.702.702 0 0 1 .969.219zM.459 10C-.411 7.443 0 4.947 1.519 2.938A7.614 7.614 0 0 1 7.5 0a7.615 7.615 0 0 1 5.982 2.938C15 4.948 15.412 7.442 14.542 10c-.602 1.707-1.7 3.193-2.761 4.63-1.048 1.42-.624.863-3.705 5.266-.28.4-.873.4-1.152 0-3.068-4.383-2.64-3.822-3.705-5.265C2.158 13.193 1.06 11.707.459 10zm1.328-.495c.531 1.495 1.564 2.938 2.562 4.29.778 1.054.548.736 3.151 4.47 2.606-3.738 2.373-3.416 3.15-4.47.999-1.352 2.032-2.795 2.563-4.29.71-2.058.411-4.085-.843-5.706A6.2 6.2 0 0 0 7.5 1.406 6.2 6.2 0 0 0 2.63 3.8c-1.254 1.62-1.553 3.648-.843 5.706zm1.781-1.943A3.937 3.937 0 0 1 7.5 3.63a3.937 3.937 0 0 1 3.932 3.933A3.937 3.937 0 0 1 7.5 11.497a3.937 3.937 0 0 1-3.932-3.933zM7.5 5C6.107 5 5 6.169 5 7.563 5 9 6.107 10.09 7.5 10.09S10 9 10 7.563C10 6.168 8.893 5 7.5 5z"/></g></g></g></svg>