<svg xmlns="http://www.w3.org/2000/svg" width="170" height="50" viewBox="0 0 170 50"><g><g><g><path fill="#ff6700" d="M0 4a4 4 0 0 1 4-4h162a4 4 0 0 1 4 4v42a4 4 0 0 1-4 4H4a4 4 0 0 1-4-4z"/></g><g><g><path fill="#fffffe" d="M120.662 21.846H123v15.576h-2.338zm12.262 0h2.313v15.576h-2.313zm-31.002 0h2.312v15.576h-2.312zm5.817 10.449l4.702-1.978c-.293-.616-.983-1.129-1.943-1.129-1.498 0-2.961 1.576-2.759 3.107zm7.033-2.043l.366.863-7.04 2.94c.42.788 1.099 1.601 2.575 1.601 1.327 0 2.102-.719 2.572-1.455l1.815 1.215c-.814 1.097-2.177 2.32-4.398 2.32-2.662 0-5.153-1.974-5.153-5.303 0-3.145 2.235-5.277 4.897-5.277 2.1 0 3.686 1.409 4.366 3.096zM92.394 32.48c0 1.952 1.4 3.182 2.904 3.182 1.417 0 2.835-1.138 2.835-3.202 0-2.03-1.421-3.22-2.804-3.22-1.481 0-2.935 1.21-2.935 3.24zM98 28.38v-.894h2.156V37c0 3.713-2.156 5.492-4.944 5.492-2.565 0-4.006-1.59-4.722-3.112l2.018-.849c.279.68 1.084 1.881 2.687 1.881 1.66 0 2.805-1.092 2.805-2.915v-1.042c-.632.686-1.428 1.284-2.924 1.284-2.42 0-4.992-2.11-4.992-5.29 0-2.793 2.218-5.281 5.04-5.281 1.229 0 2.154.479 2.876 1.213zm-14.21.858c-1.7 0-3.005 1.368-3.005 3.198 0 1.871 1.322 3.222 2.997 3.222 1.526 0 2.952-1.266 2.952-3.206 0-1.984-1.433-3.214-2.945-3.214zM89 32.466c0 3.053-2.329 5.266-5.205 5.266-3.177 0-5.314-2.464-5.314-5.328 0-2.822 2.203-5.24 5.278-5.24C86.287 27.163 89 29 89 32.465zm-19.818-.03c0 1.871 1.322 3.222 2.997 3.222 1.525 0 2.952-1.266 2.952-3.206 0-1.984-1.433-3.214-2.945-3.214-1.699 0-3.004 1.368-3.004 3.198zm8.242.03c0 3.053-2.356 5.266-5.232 5.266-3.192 0-5.314-2.464-5.314-5.328 0-2.822 2.203-5.24 5.278-5.24 2.527 0 5.268 1.836 5.268 5.302zm-11.638-3.683s.136.544.136 1.484c0 4.46-3.201 7.475-7.574 7.475-4.972 0-8.348-4.07-8.348-8.242 0-4.258 3.59-8.2 8.23-8.2 3.644 0 5.643 2.238 5.643 2.238l-1.557 1.623s-1.486-1.618-4.007-1.618c-3.309 0-5.873 2.609-5.873 5.997 0 3.46 2.734 5.958 5.867 5.958 2.448 0 5.042-1.338 5.305-4.498h-5.314v-2.216h7.492z"/></g><g><path fill="#fffffe" d="M149.782 42.497l6.695-15.336H159l-6.693 15.336zM120.66 21.85h5.593c2.747 0 4.93 2.234 4.93 4.963s-2.183 4.962-4.93 4.962h-5.593zm2.34 7.598h3.253c1.436 0 2.618-1.19 2.618-2.635 0-1.445-1.182-2.635-2.618-2.635H123z"/></g><g><path fill="#fffffe" d="M92.88 7.65h.956l3.069 5.294V7.65h.956v7.272h-.955l-3.07-5.297v5.297h-.956zm-2.35 3.645c0-1.486-1.164-2.634-2.63-2.652-1.466.018-2.63 1.166-2.63 2.652 0 1.526 1.222 2.618 2.63 2.635 1.408-.017 2.63-1.11 2.63-2.635zm1.105-.018c0 1.83-1.508 3.617-3.735 3.645-2.227-.028-3.736-1.814-3.736-3.645 0-1.884 1.63-3.627 3.736-3.627 2.1-.001 3.735 1.743 3.735 3.627zM78.602 8.736h-1.908V7.65h4.98v1.086h-1.909v6.186h-1.163zM60.506 7.65h3.735v1.086H61.48v2.006h2.43v1.086h-2.43v2.008h2.761v1.086h-3.735zm6.889 1.086h-1.908V7.65h4.981v1.086h-1.91v6.186h-1.163zm6.808-1.086h1.245v7.272h-1.245zm-14.942 3.966c0 1.973-1.502 3.306-3.554 3.306-2.333 0-3.917-1.799-3.917-3.645 0-1.884 1.684-3.627 3.861-3.627 1.71 0 2.648.99 2.648.99l-.73.718s-.697-.716-1.88-.716c-1.533 0-2.756 1.154-2.756 2.653 0 1.538 1.282 2.635 2.752 2.635 1.15 0 2.367-.592 2.49-1.93h-2.494v-1h3.516s.064.2.064.616zm85.444 25.804v-1.257c-.534.639-1.184 1.132-2.01 1.359-1.467.402-3.253.244-4.342-.934-.697-.756-.92-1.997-.79-3.004.242-1.862 1.765-3 3.544-3.181 1.14-.115 2.388.108 3.542.415-.252-2.54-4.094-3.085-5.441-.715l-1.86-1.257C140.1 24.681 147.378 26 147 31.818v5.602zm-1.925-4.966c-3.974-.602-3.308 3.771-.635 3.038 1.266-.347 2.264-1.28 2.559-2.574-.647-.211-1.242-.38-1.924-.464zM153.06 39l-5.162-11.846h2.525L154 35.31h-.94z"/></g></g><g><path fill="#fffffe" d="M13 39.697c.118-.047.247-.107.381-.18l17.786-9.798L27 25.482zM38 26c.73-.446 1.492-1.469 0-2.287l-6-3.322-4.444 4.475L32 29.286zm-6.836-6L13.38 10.196c-.193-.103-.38-.196-.62-.196l14.185 14.254L31.163 20zM11 11.766l.132 26.307c.004.76.231 1.349.656 1.619L26.342 24.87 11.718 10.176c-.42.25-.718.758-.718 1.59z"/></g></g></g></svg>