<svg xmlns="http://www.w3.org/2000/svg" width="30" height="30" viewBox="0 0 30 30"><g><g><g><path d="M11.736 24.836c-.43.36-1.032.446-1.549.223a1.452 1.452 0 0 1-.881-1.273 1.448 1.448 0 0 1 .777-1.336.496.496 0 0 0 .246-.45v-4.098c0-.268.22-.484.492-.484s.492.216.492.484V22a.5.5 0 0 0 .246.46c.441.241.69.67.726 1.147.035.476-.17.94-.55 1.238zm.56-6.934c0-.802-.66-1.452-1.475-1.452a1.46 1.46 0 0 0-1.475 1.452v3.87a2.4 2.4 0 0 0-.926 2.415c.19.914.896 1.638 1.816 1.813.191.097.388.123.585.127a2.456 2.456 0 0 0 2.333-1.654 2.397 2.397 0 0 0-.857-2.7z"/></g><g><path d="M23.705 28.839l-.099.072-.098-.072c-3.227-2.392-5.18-6.092-5.311-10.065l1.234-.27a7.207 7.207 0 0 0 4.175-2.638 7.208 7.208 0 0 0 4.17 2.637l1.224.271c-.116 3.973-2.068 7.673-5.295 10.065zm-4.033-1.258c0 .801-.672 1.419-1.475 1.419H3.443C2.628 29 2 28.382 2 27.58V26.13h4.393a.488.488 0 0 0 .492-.484v-8.71a.488.488 0 0 0-.492-.483H2V15c0-.802.628-1.452 1.443-1.452h14.754c.803 0 1.475.65 1.475 1.452v2.42c-.148.043-.295.086-.448.12l-1.627.363c-.23.097-.39.253-.384.484a13.94 13.94 0 0 0 2.459 7.858zm-13.77-5.323H1v-1.935h4.902zM1 25.161v-1.935h4.902v1.935zm4.902-7.742v1.936H1v-1.936zm9.344-4.838H6.393V8.226c0-2.405 1.982-4.355 4.427-4.355 2.444 0 4.426 1.95 4.426 4.355zM3.443 8.226C3.443 4.217 6.745 1 10.82 1c4.074 0 7.377 3.217 7.377 7.226v4.355h-1.968V8.226c0-2.94-2.422-5.323-5.41-5.323-2.987 0-5.41 2.383-5.41 5.323v4.355H3.444zm26.173 9.677L28 17.55a6.2 6.2 0 0 1-3.946-2.806c-.054-.147-.25-.237-.423-.237a.493.493 0 0 0-.423.237A5.736 5.736 0 0 1 20.656 17v-2c-.001-1-.58-1.831-1.476-2.216V8.226C19.18 3.683 15.437 0 10.82 0 6.202 0 2.459 3.683 2.459 8.226v4.558A2.363 2.363 0 0 0 1 15v1.452H.492a.488.488 0 0 0-.492.483v8.71c0 .267.22.484.492.484H1v1.452A2.425 2.425 0 0 0 3.443 30h14.754c1.358 0 2.459-1.083 2.459-2.42v-.062a14.093 14.093 0 0 0 2.262 2.095l.393.29a.636.636 0 0 0 .59 0l.394-.29A13.934 13.934 0 0 0 30 18.387c0-.23-.155-.387-.384-.484z"/></g><g><path d="M24.234 24.637a2.506 2.506 0 0 1-2.806-1.138c-.564-.963-.428-2.179.408-2.959a2.514 2.514 0 0 1 3.013-.361l-1.328 2.613-.984-1.311-.787.58L23.226 24c.093.119.238.19.393.19h.044c.17-.016.337-.116.394-.266l1.559-3.068c.295.409.451.898.447 1.399a2.45 2.45 0 0 1-1.83 2.382zm2.267-5.551l-.875-.436-.335.653c-1.575-.916-3.601-.478-4.642 1.002a3.393 3.393 0 0 0 .686 4.627 3.528 3.528 0 0 0 4.74-.343 3.39 3.39 0 0 0-.012-4.676z"/></g></g></g></svg>