<svg xmlns="http://www.w3.org/2000/svg" width="20" height="11" viewBox="0 0 20 11"><g><g><g><path d="M19 5.928A10.325 10.325 0 0 1 15.108 9a6.869 6.869 0 0 1-1.32.59c1.154-1.008 1.881-2.468 1.881-4.09 0-1.623-.728-3.083-1.883-4.091.449.153.89.334 1.322.591A10.325 10.325 0 0 1 19 5.072a.605.605 0 0 1 0 .856zm-9 4.283c-2.677 0-4.856-2.113-4.856-4.711C5.144 2.902 7.323.788 10 .788s4.856 2.114 4.856 4.712-2.179 4.711-4.856 4.711zM4.892 9A10.325 10.325 0 0 1 1 5.928a.605.605 0 0 1 0-.856C2 3.768 3.372 2.689 4.892 2a6.881 6.881 0 0 1 1.322-.59C5.06 2.416 4.331 3.876 4.331 5.5c0 1.623.728 3.083 1.883 4.091A6.884 6.884 0 0 1 4.892 9zm14.784-4.414C18.553 3.19 17.099 2 15.47 1.246 13.81.44 12 0 10.155 0h-.31C8 0 6.191.44 4.53 1.246 2.9 2 1.447 3.19.324 4.586a1.449 1.449 0 0 0 0 1.828C1.447 7.81 2.901 9 4.53 9.754 6.19 10.56 8 11 9.845 11h.31c1.845 0 3.654-.44 5.316-1.246C17.1 9 18.553 7.81 19.676 6.414a1.449 1.449 0 0 0 0-1.828z"/></g><g><path d="M10 6.723c-.7 0-1.266-.55-1.266-1.227C8.734 4.82 9.3 4.27 10 4.27c.695 0 1.262.55 1.262 1.226 0 .677-.567 1.227-1.262 1.227zm0-3.243c-1.148 0-2.08.905-2.08 2.016 0 1.112.932 2.017 2.08 2.017 1.144 0 2.076-.905 2.076-2.017 0-1.111-.932-2.016-2.076-2.016z"/></g></g></g></svg>