<svg xmlns="http://www.w3.org/2000/svg" width="26" height="23" viewBox="0 0 26 23"><g><g><g><path d="M10.4 21.82H8.089v-6.487a.58.58 0 0 0-.578-.59H4c-.273 0-.533.257-.533.59v6.488H1.156V11.795H10.4zm-5.778 0v-5.897h2.311v5.898zM11 10.616H.578a.586.586 0 0 0-.578.59V22.41c0 .325.26.59.578.59H11c.296 0 .556-.265.556-.59V11.205c0-.324-.26-.59-.556-.59zm6.911 5.308h3.467v2.36H17.91zm4.622 2.949v-3.539c0-.333-.259-.59-.533-.59h-4.667a.57.57 0 0 0-.577.59v3.539c0 .325.244.59.577.59H22c.274 0 .533-.265.533-.59zm-8.089-7.077h10.4V21.82h-10.4zM26 22.41V11.205a.584.584 0 0 0-.578-.59H13.867a.584.584 0 0 0-.578.59V22.41c0 .326.259.59.578.59h11.555a.584.584 0 0 0 .578-.59zM11.278 7.667L6.881 1.179h13.595l3.912 6.488zm-9.597 0l4.097-6.045 4.096 6.045zm24.232.283L21.291.283A.57.57 0 0 0 20.8 0H5.778c-.19 0-.37.094-.474.254L.104 7.92a.767.767 0 0 0-.04.608c.104.194.3.318.514.318h24.844a.576.576 0 0 0 .503-.3.76.76 0 0 0-.012-.596z"/></g></g></g></svg>