<svg xmlns="http://www.w3.org/2000/svg" width="25" height="25" viewBox="0 0 25 25"><g><g><path fill="#fff" d="M12.525 6.101c3.547 0 6.423 2.899 6.423 6.424a6.424 6.424 0 0 1-6.423 6.423C9 18.948 6.1 16.072 6.1 12.525 6.101 9 9 6.1 12.525 6.1zm0 10.593a4.17 4.17 0 1 0 0-8.339 4.17 4.17 0 0 0 0 8.34zM12.5 0C9.105 0 8.68 0 7.346.075 6 .135 5.107.347 4.312.656c-.822.344-1.52.747-2.214 1.442C1.403 2.793 1 3.49.656 4.312.347 5.107.136 6 .076 7.346 0 8.68 0 9.105 0 12.5s0 3.82.075 5.154c.06 1.346.272 2.24.581 3.034.344.822.747 1.519 1.442 2.214.695.695 1.392 1.098 2.214 1.442.795.309 1.688.52 3.034.58C8.68 25 9.106 25 12.5 25c3.395 0 3.82 0 5.154-.075 1.346-.06 2.239-.272 3.034-.581.822-.344 1.519-.747 2.214-1.442.695-.695 1.098-1.392 1.442-2.214.309-.795.52-1.688.58-3.034C25 16.32 25 15.895 25 12.5s0-3.82-.075-5.154c-.061-1.346-.272-2.24-.581-3.034-.344-.822-.747-1.519-1.442-2.214C22.207 1.403 21.51 1 20.688.656 19.893.347 19 .136 17.654.076 16.32 0 15.894 0 12.5 0m8.135 5.804c0 .821-.635 1.487-1.488 1.487a1.488 1.488 0 0 1-1.488-1.487 1.5 1.5 0 0 1 1.488-1.489 1.48 1.48 0 0 1 1.488 1.489M12.5 2.252c3.338 0 3.733.013 5.051.073 1.219.056 1.88.26 2.321.43.584.245 1 .498 1.437.935.438.438.691.854.935 1.438.172.44.375 1.102.43 2.32.061 1.32.074 1.715.074 5.052 0 3.338-.013 3.733-.073 5.051-.056 1.219-.26 1.88-.43 2.321-.245.584-.498 1-.936 1.438-.437.437-.853.69-1.437.935-.44.17-1.102.374-2.321.43-1.318.06-1.713.073-5.051.073s-3.733-.013-5.051-.073c-1.219-.056-1.88-.26-2.321-.43-.584-.245-1-.498-1.437-.935-.438-.438-.691-.854-.935-1.438-.172-.44-.375-1.102-.43-2.32-.061-1.32-.074-1.714-.074-5.052 0-3.337.013-3.733.073-5.05.056-1.22.26-1.882.43-2.322.245-.584.498-1 .936-1.438.437-.437.853-.69 1.437-.935.44-.17 1.102-.374 2.32-.43 1.319-.06 1.714-.073 5.052-.073"/></g></g></svg>