<svg xmlns="http://www.w3.org/2000/svg" width="20" height="12" viewBox="0 0 20 12"><g><g><g><path d="M4.067 10.2a.307.307 0 0 1-.312-.3c0-.165.14-.3.313-.3.172 0 .312.135.312.3 0 .166-.14.3-.313.3zm0-1.2c-.516 0-.937.404-.937.9s.42.9.938.9c.516 0 .932-.404.932-.9S4.584 9 4.068 9z"/></g><g><path d="M15.938 10.2a.307.307 0 0 1-.313-.3c0-.165.14-.3.313-.3.172 0 .312.135.312.3 0 .166-.14.3-.313.3zm0-1.2c-.517 0-.938.404-.938.9s.42.9.938.9c.516 0 .937-.404.937-.9s-.42-.9-.938-.9z"/></g><g><path d="M19.375 9.901c0 .166-.14.3-.313.3h-.96c.03-.201.03-.397 0-.6h1.273zm-3.438 1.5a1.587 1.587 0 0 1-1.447-.937.29.29 0 0 0-.046-.123 1.443 1.443 0 0 1 0-.88.29.29 0 0 0 .045-.122c.233-.55.794-.938 1.448-.938.655 0 1.216.388 1.449.938a.29.29 0 0 0 .045.122c.092.286.092.594 0 .88a.29.29 0 0 0-.045.123 1.587 1.587 0 0 1-1.448.938zm-9.71-1.2c.03-.201.03-.397 0-.6h7.546c-.03.202-.03.399 0 .6zm-3.613.263a.29.29 0 0 0-.045-.123 1.443 1.443 0 0 1 0-.88.29.29 0 0 0 .045-.122c.233-.55.794-.938 1.449-.938.654 0 1.215.388 1.448.938a.29.29 0 0 0 .045.122c.092.286.092.594 0 .88a.29.29 0 0 0-.045.123 1.587 1.587 0 0 1-2.897 0zm-1.676-.262a.307.307 0 0 1-.313-.3v-.3h1.273c-.03.201-.03.398 0 .6zM1.25.6h10.625c.125 0 .313.135.313.3V9H6c-.753-1.594-3.12-1.599-3.913 0H.937V.9c0-.165.14-.3.313-.3zm14.946 2.778l1.014 2.434c.034.082.104.188.191.188l1.234.38c.256.082.427.311.427.57V7.8h-.312a.306.306 0 0 0-.313.3c0 .166.14.3.313.3h.313V9h-1.15C17.122 7.406 14.755 7.401 14 9h-1.188V3h2.803c.257 0 .485.148.58.378zm3.491 3.572c0-.518-.343-.95-.854-1.139l-1.097-.35-.96-2.306a1.245 1.245 0 0 0-1.16-.755h-2.804V.9c0-.496-.42-.9-.937-.9H1.25C.733 0 .312.404.312.9V9C.137 9 0 9.165 0 9.339V9.9c0 .497.42.9.937.9h1.15c.791 1.596 3.158 1.6 3.913 0h8c.753 1.596 3.12 1.6 3.913 0h1.15c.516 0 .937-.403.937-.9v-.6A.308.308 0 0 0 19.687 9z"/></g><g><path d="M14.065 4.2h1.025l.416 1.2h-1.441zM13.752 6h2.188c.213 0 .364-.2.296-.395l-.625-1.8a.312.312 0 0 0-.296-.205h-1.563a.307.307 0 0 0-.312.3v1.8c0 .166.14.3.312.3z"/></g><g><path d="M14.377 6.6h-.625a.307.307 0 0 0-.312.3c0 .166.14.3.312.3h.625a.306.306 0 0 0 .313-.3c0-.166-.14-.3-.313-.3z"/></g><g><path d="M6.25 3h.938v.9c0 .166.14.3.312.3h1.25a.306.306 0 0 0 .313-.3V3H10v3.6H6.25zm2.188 0v.6h-.626V3zM2.811 6.3h2.813v.6c0 .166.14.3.313.3h4.375a.306.306 0 0 0 .312-.3V2.7c0-.166-.14-.3-.313-.3H5.939a.306.306 0 0 0-.313.3v.6h-.938a.306.306 0 0 0-.312.3c0 .166.14.3.313.3h.937v.6H4.062a.306.306 0 0 0-.312.3c0 .2.14.3.313.3h1.562v.6H2.812A.306.306 0 0 0 2.5 6c0 .166.14.3.313.3z"/></g></g></g></svg>