<svg xmlns="http://www.w3.org/2000/svg" width="21" height="25" viewBox="0 0 21 25"><g><g><g><path d="M5 4.891h11.579v2.174H5zm0-1.087c-.63 0-1.132.493-1.132 1.087v2.174c0 .595.501 1.087 1.132 1.087h11.579c.604 0 1.105-.492 1.105-1.087V4.891c0-.594-.5-1.087-1.105-1.087zM3.316 1.087h16.579V19H3.315c-.824 0-1.605.315-2.21.792V3.261c0-1.206.985-2.174 2.21-2.174zm0-1.087C1.492 0 0 1.467 0 3.26V22c0 1.692 1.565 3 3.316 3H21v-1.087H3.316c-1.194 0-2.21-.913-2.21-1.913 0-1.1.994-1.891 2.21-1.891H21V0z"/></g></g></g></svg>