<svg xmlns="http://www.w3.org/2000/svg" width="32" height="28" viewBox="0 0 32 28"><g><g><g><path d="M18 .4c3.77 0 7.162 1.525 9.62 3.988A13.573 13.573 0 0 1 31.597 14c0 3.75-1.522 7.15-3.979 9.612a13.476 13.476 0 0 1-9.19 3.982V26.24a12.17 12.17 0 0 0 8.238-3.585A12.221 12.221 0 0 0 30.249 14c0-3.376-1.37-6.438-3.582-8.655A12.186 12.186 0 0 0 18 1.754c-3 0-5.765 1.108-7.898 2.942a12.265 12.265 0 0 0-4.227 8.176l5.047-2.529.605 1.211-6.03 3.022c-.497.065-.742.03-.888-.152L.56 9.35l1.054-.846 2.967 3.717C5 8.715 6.837 5.624 9.439 3.482A13.457 13.457 0 0 1 18 .4z"/></g></g></g></svg>