<svg xmlns="http://www.w3.org/2000/svg" width="21" height="27" viewBox="0 0 21 27"><g><g><g><path d="M9 2.245c0-.245.204-.501.488-.501l1.09.003c.284 0 .514.253.513.505l-.004 1.292H9zm9.398 8.238c.241.065.49-.076.602-.316 0-.01 1.95-7.306 2-7.308.155-.748-.29-1.518-1-1.722l-1.085-.28a1.415 1.415 0 0 0-1.733.986l-2.827 10.349c-.08.29.135.577.437.577h4.055c.5 0 .906.403.906.9v.675c0 .496-.406.9-.906.9H2.373a.904.904 0 0 1-.906-.9v-.675c0-.497.406-.9.906-.9 9.722 0 9.159.004 9.223-.008a.45.45 0 0 0 .306-.212c.098-.158.098.392.098-8.105h.48c.52 0 .876.39.876.87v3.91c0 .25.202.45.453.45.25 0 .452-.2.452-.45v-3.91c0-.976-.8-1.77-1.782-1.77H12v-1.29C12 1.48 11.366.85 10.58.847L9.492.844c-.795 0-1.423.634-1.425 1.399L8 10c0 .297.243.5.493.5a.451.451 0 0 0 .454-.449L9 4.444h2.084l-.022 7.425H7.368L4.864 1.119C4.684.346 4-.12 3.35 0L.926.585C-.233.85-.257 2.76.592 2.565A.454.454 0 0 0 .93 2c-.067-.265.069-.504.2-.538L3.553.905c.09-.021.174.032.217.095.23.146.03-.458 2.669 10.869H3.224l-.59-2.537L4.115 9a.464.464 0 0 0 .34-.55.453.453 0 0 0-.544-.336l-1.483.341-.742-3.187L2.742 5c.258 0 .395-.272.339-.514-.081-.242-.3-.393-.543-.337L1 4.493C.798 4.55.646 4.791.702 5l1.593 6.87A1.807 1.807 0 0 0 .561 13.67v.675c0 .992.813 1.8 1.812 1.8h15.415l-.5 9.03a.984.984 0 0 1-.984.926H4.86a.984.984 0 0 1-.985-.926l-.393-7.108a.453.453 0 0 0-.905.05L3 25.223C3 26.22 3.855 27 4.86 27h11.444c1.004 0 1.834-.78 1.889-1.777l.502-9.08h.152c1 0 1.812-.807 1.812-1.8v-.674c0-.993-.813-1.8-1.812-1.8h-3.465l2.675-9.79a.507.507 0 0 1 .621-.354L19.72 2c.28.079.43.355.356.623l-.431 1.579-.555-.15c-.241-.052-.49.077-.555.317a.45.45 0 0 0 .318.552l.554.15-1.328 4.86c-.079.24.077.487.319.552z"/></g></g></g></svg>