<svg xmlns="http://www.w3.org/2000/svg" width="48" height="20" viewBox="0 0 48 20"><defs><clipPath id="6dkda"><path fill="#fff" d="M10 20c5.523 0 10-4.477 10-10S15.523 0 10 0 0 4.477 0 10s4.477 10 10 10z"/></clipPath><clipPath id="6dkdb"><path fill="#fff" d="M24 20c5.523 0 10-4.477 10-10S29.523 0 24 0 14 4.477 14 10s4.477 10 10 10z"/></clipPath><clipPath id="6dkdc"><path fill="#fff" d="M38 20c5.523 0 10-4.477 10-10S43.523 0 38 0 28 4.477 28 10s4.477 10 10 10z"/></clipPath></defs><g><g><g><path fill="#f18dde" d="M10 20c5.523 0 10-4.477 10-10S15.523 0 10 0 0 4.477 0 10s4.477 10 10 10z"/><path fill="none" stroke="#f8f8f8" stroke-miterlimit="20" stroke-width="2" d="M10 20c5.523 0 10-4.477 10-10S15.523 0 10 0 0 4.477 0 10s4.477 10 10 10z" clip-path="url(&quot;#6dkda&quot;)"/></g><g><path fill="#6234cd" d="M24 20c5.523 0 10-4.477 10-10S29.523 0 24 0 14 4.477 14 10s4.477 10 10 10z"/><path fill="none" stroke="#f8f8f8" stroke-miterlimit="20" stroke-width="2" d="M24 20c5.523 0 10-4.477 10-10S29.523 0 24 0 14 4.477 14 10s4.477 10 10 10z" clip-path="url(&quot;#6dkdb&quot;)"/></g><g><path fill="#4eaede" d="M38 20c5.523 0 10-4.477 10-10S43.523 0 38 0 28 4.477 28 10s4.477 10 10 10z"/><path fill="none" stroke="#f8f8f8" stroke-miterlimit="20" stroke-width="2" d="M38 20c5.523 0 10-4.477 10-10S43.523 0 38 0 28 4.477 28 10s4.477 10 10 10z" clip-path="url(&quot;#6dkdc&quot;)"/></g></g></g></svg>