<svg xmlns="http://www.w3.org/2000/svg" width="22" height="18" viewBox="0 0 22 18"><g><g><g><path d="M12.45 7.115a.377.377 0 0 0-.1-.517c-.35-.207-.68.116-.543.452.114.277.485.31.644.065zm-2.257-.35c-.193-.458-.862-.167-.678.285zm-2.834-.167a.377.377 0 0 0-.101.517c.24.372.813.065.643-.35a.364.364 0 0 0-.542-.167zm14.534-1.073L17.22.775C16.316-.146 15.39 0 14 0c-.185 0-.35.177-.35.383 0 2.617-3.39 3.703-4.848 1.507-.272-.409-.88.008-.608.417C10 5 14 3.924 14.364.756c1.015 0 1.688-.115 2.338.546l4.413 4.487-3.3 3.356c-.232.236-.065.637.259.637.212 0-.074.218 3.819-3.73a.472.472 0 0 0 0-.527zm-5.58.572v11.138l-4.946.006v-5.813c0-.493-.734-.492-.734 0v5.815l-2.2.003V10h5.134v5.716c0 .494.733.493.733 0V9.611a.37.37 0 0 0-.367-.373H5.688v-3.14a.345.345 0 0 0-.688 0v1.738L3.926 8.882.886 5.789l4.412-4.487C6 .586 6.185.756 12 .756c.524 0 .523-.756 0-.756H6.595c-.686 0-1.33.281-1.815.774L.107 5.525a.472.472 0 0 0 0 .528l3.56 3.62c.143.145.333.145.519 0L5 8.89c0 9.415-.092 8.84.062 8.996C5.2 18 5.255 18 6.28 18c.485 0 .483-.751-.001-.751h-.592V10H7.7v7.627a.37.37 0 0 0 .367.373h8.612c.203 0 .321-.186.321-.392V6.098a.345.345 0 0 0-.687 0zm-1.537.668c-.187-.456-.862-.167-.677.285"/></g></g></g></svg>