<svg xmlns="http://www.w3.org/2000/svg" width="23" height="30" viewBox="0 0 23 30"><g><g><path fill="#fff" d="M0 10.602c0 2.919 1.099 5.515 3.454 6.483.386.159.732.006.844-.425.078-.297.262-1.049.344-1.362.113-.425.07-.574-.243-.945-.678-.807-1.113-1.85-1.113-3.353 0-4.264 3.188-8.104 8.303-8.104 4.529 0 7.016 2.785 7.016 6.503 0 4.894-2.152 9.024-5.345 9.024-1.765 0-3.085-1.423-2.662-3.269.507-2.154 1.488-4.47 1.488-6.022 0-1.39-.741-2.547-2.274-2.547C8 6.585 6.56 8.46 6.56 11c0 1.58.539 2.662.539 2.662l-2.17 9.248c-.643 2.745-.095 6.09-.05 6.448.028.202.284.25.401.098.167-.219 2.313-2.887 3.045-5.553.206-.755 1.185-4.665 1.185-4.665.587 1.125 2.299 2.115 4.12 2.115 5.421 0 9.098-4.974 9.098-11.63C22.727 4.687 18.49 0 12.052 0 4 0 0 5.78 0 10.602z"/></g></g></svg>