<svg xmlns="http://www.w3.org/2000/svg" width="22" height="22" viewBox="0 0 22 22"><g><g><g><path d="M.733 20.165H2.2v1.101H.733zM18 13.927c.776 0 1.433.659 1.433 1.468 0 .81-.657 1.468-1.433 1.468-.842 0-1.5-.658-1.5-1.468 0-.81.658-1.468 1.5-1.468zm0-.734a2.21 2.21 0 0 0-2.233 2.202A2.21 2.21 0 0 0 18 17.597c1.18 0 2.167-.988 2.167-2.202S19.18 13.193 18 13.193zm-1.133-5.87c1.01 0 1.833.822 1.833 1.834A1.843 1.843 0 0 1 16.867 11C15.856 11 15 10.169 15 9.157s.856-1.835 1.867-1.835zm-12.222 0h1.71c.645 1.56.848 3.26.645 4.93L6 20.86c-.07.232-.267.406-.5.406-.233 0-.43-.174-.5-.406l-1-8.606c-.203-1.672 0-3.371.645-4.932zm12.222-.735A2.57 2.57 0 0 0 14.3 9.157a2.57 2.57 0 0 0 2.567 2.569 2.57 2.57 0 0 0 2.566-2.569 2.57 2.57 0 0 0-2.566-2.569zM3.303 4.835c.026.92.48 1.8.697 2.165a10.659 10.659 0 0 0-.728 5.343l.934 7.712a3.077 3.077 0 0 1-1.273-.647V5.228c.119-.134.242-.228.37-.393zM11 3.653c1 0 1.833.823 1.833 1.835A1.843 1.843 0 0 1 11 7.322c-1 0-1.833-.823-1.833-1.834 0-1.012.833-1.835 1.833-1.835zm0-.734a2.57 2.57 0 0 0-2.567 2.569A2.57 2.57 0 0 0 11 8.056a2.57 2.57 0 0 0 2.567-2.568A2.57 2.57 0 0 0 11 2.919zm-10.267 0H2.2v16.512H.733zm4.767-.57C6.15 3.06 7 4.147 7 4.754c0 .741-.42 1.508-.606 1.834H4.606C4.42 6.263 4 5.5 4 4.754c0-.606.85-1.695 1.5-2.405zm5.5-.53c5.757 0 10.267 4.029 10.267 9.181 0 9.165-3.267 9.165-4.4 9.165-1.605 0-2.168-2-2.765-4.165-.599-2.078-1.218-4.274-3.102-4.274-1.885 0-2.505 2.197-3.104 4.274-.274 1-.556 2-.948 2.779l.78-6.436C7.948 10.528 7.696 8.683 7 7c.222-.375.7-1.297.7-2.246 0-.657-.507-1.476-1.005-2.123C8 2.093 9.48 1.818 11 1.818zM1.467 1.17L2 2.185H1zm0-1.171a.359.359 0 0 0-.328.186L0 2.388v19.245c0 .203.164.367.367.367h2.2a.367.367 0 0 0 .366-.367v-1.319c.414.252.87.424 1.367.511l.015.124a1.195 1.195 0 0 0 2.37 0l.085-.7c.94-.862 1.396-2.453 1.832-4.002C9.152 14.3 9.67 12.46 11 12.46s1.847 1.838 2.396 3.785c.604 2.181 1.311 4.654 3.47 4.654C20.322 20.9 22 17.66 22 11c0-5.564-4.832-9.916-11-9.916-1.695 0-3.304.324-4.792.916-.208-.21-.394-.387-.449-.441a.366.366 0 0 0-.518 0c-.136.135-.985 1.003-1.514 1.926a9.79 9.79 0 0 0-.794.683V2.552a.369.369 0 0 0-.038-.164L1.795.186A.359.359 0 0 0 1.467 0z"/></g></g></g></svg>