<svg xmlns="http://www.w3.org/2000/svg" width="18" height="17" viewBox="0 0 18 17"><g><g><path fill="none" stroke="#ff6700" stroke-miterlimit="20" d="M3.464 4.453L0 1h1.64a1 1 0 0 1 .953.696l.869 2.723h-.007zm13.463-.034L15.38 10H5.61l-.288-.079s-.114.019-.27.079h-.118l-1.47-5.547.013.013-.015-.047zM5.051 10h.56l9.858 2.687H5.322s-1.188-.192-1.188-1.383c0-.823.567-1.169.917-1.304zm.173 4.836c0-.642.52-1.163 1.163-1.163.613 0 1.163.52 1.163 1.163S7 16 6.387 16a1.163 1.163 0 0 1-1.163-1.164zm5.776 0c0-.642.56-1.163 1.203-1.163a1.163 1.163 0 0 1 0 2.327C11.561 16 11 15.479 11 14.836z"/></g></g></svg>