<svg xmlns="http://www.w3.org/2000/svg" width="22" height="19" viewBox="0 0 22 19"><g><g><g><path d="M7.73 3h-.037c-.2 0-.34.173-.311.372.05.352.122.705.214 1.05.052.194.253.31.404.258.24-.05.357-.25.305-.444a8.456 8.456 0 0 1-.197-.966C8.08 3.083 7.916 3 7.73 3zm-.074-1.293a.365.365 0 0 0-.367.364v.045c0 .198.162.363.368.363.202 0 .343-.164.343-.365v-.043c0-.2-.142-.364-.344-.364zM11 0C9.513 0 8 .095 6.547.285 6 .36 5.522.83 5.48 1.405a9.114 9.114 0 0 0 .329 3.183.367.367 0 0 0 .705-.199 8.395 8.395 0 0 1-.302-2.932C6.229 1.226 6.409 1 6.64 1a34.82 34.82 0 0 1 8.722 0c.232 0 .412.226.43.457A8.302 8.302 0 0 1 15 5.65a33.774 33.774 0 0 0-9.579.223C4.79 6 4.34 6.55 4.395 7.178c.065.723.239 1.427.518 2.1-.403.044-.806.091-1.209.144a1.204 1.204 0 0 0-1.048 1.428c.058.31.133.62.223.923.057.227.26.303.455.227.194 0 .305-.24.248-.433a8.482 8.482 0 0 1-.205-.85.492.492 0 0 1 .423-.574 55.652 55.652 0 0 1 14.404 0c.28.037.474.3.423.575a8.297 8.297 0 0 1-.83 2.372H1.153c-.573 0-1.063.425-1.153.988-.053.421.146.922.567 1.138C2 16 3.451 16.63 5 17v.779C5 18.452 5.55 19 6.229 19h9.5a.365.365 0 0 0 .367-.364c0-.2-.164-.363-.367-.363h-9.5c-.229 0-.498-.222-.498-.494v-.636c2.604.395 8.41.532 11.19-.143 1.577-.348 3.079-1 4.516-1.784.4-.216.563-.677.563-1.135a1.167 1.167 0 0 0-1.15-.99h-1.09a.365.365 0 0 0-.367.363c0 .2.164.364.366.364h1.092c.218 0 .391.182.414.359a.411.411 0 0 1-.2.412c-1.356.791-2.807 1.411-4.313 1.726-3.03.685-9.655.433-11.5 0C3.746 16 2.295 15.38.94 14.589a.411.411 0 0 1-.2-.414c.029-.175.207-.357.414-.357H18a.374.374 0 0 0 .36-.23c.478-.86.81-1.78.988-2.738.13-.701-.348-1.34-1.048-1.428A56.395 56.395 0 0 0 5.678 9.2a6.414 6.414 0 0 1-.552-2.087.494.494 0 0 1 .417-.523C9.165 6 12.839 6 16.46 6.59c.256.043.44.273.417.523-.02.228-.053.457-.098.682a.36.36 0 0 0 .288.427c.199.04.392-.089.431-.286.05-.25.087-.505.11-.759.056-.626-.395-1.177-1.027-1.304-.268-.045-.582-.086-.805-.124.56-1.288.822-2.681.762-4.071.461-.278.855-.353 1.139-.212.712.355.708 2.055-.627 2.894a.362.362 0 0 0-.114.502c.063.138.335.22.506.138 1.829-1.174 1.806-3.564.557-4.184-.272-.139-.827-.286-1.614.113a1.23 1.23 0 0 0-.929-.644A34.705 34.705 0 0 0 11 0z"/></g></g></g></svg>