<svg xmlns="http://www.w3.org/2000/svg" width="30" height="30" viewBox="0 0 30 30"><g><g><g><path d="M28.75 21.875a6.882 6.882 0 0 1-6.875 6.875A6.882 6.882 0 0 1 15 21.875 6.882 6.882 0 0 1 21.875 15a6.882 6.882 0 0 1 6.875 6.875zm1.25 0c0-4.48-3.645-8.125-8.125-8.125s-8.125 3.645-8.125 8.125S17.395 30 21.875 30 30 26.355 30 21.875z"/></g><g><path d="M20.625 25a.631.631 0 0 1-.442-.182l-2.5-2.5a.625.625 0 0 1 .884-.884l2.027 2.027L24.53 19a.598.598 0 0 1 .883-.095c.26.228.286.623.058.883l-4.375 5a.576.576 0 0 1-.45.212h-.02z"/></g><g><path d="M11.875 25H1.657A1.66 1.66 0 0 1 0 23.343V8.125C0 7.78.28 7.5.625 7.5h23.75c.345 0 .625.28.625.625v3.75c0 .345-.28.625-.625.625a.607.607 0 0 1-.625-.625V8.75H1.25v14.593c0 .225.182.407.407.407h10.218c.345 0 .625.25.625.625 0 .345-.28.625-.625.625z"/></g><g><path d="M24.375 8.75a.623.623 0 0 1-.547-.324l-3.776-6.852a.622.622 0 0 0-.546-.324H5.494a.625.625 0 0 0-.548.324L1.171 8.426a.626.626 0 0 1-.848.246C0 8.506-.09 8.125.078 7.824L3.853 1c.328-.629.958-1 1.64-1h14.013c.683 0 1.313.371 1.641 1l3.775 6.823c.167.302.078.682-.246.848a.61.61 0 0 1-.301.079z"/></g><g><path d="M12.505 8.75a.625.625 0 0 1-.625-.625v-7.5a.625.625 0 0 1 1.25 0v7.5c0 .345-.28.625-.625.625z"/></g></g></g></svg>