<svg xmlns="http://www.w3.org/2000/svg" width="32" height="23" viewBox="0 0 32 23"><g><g><g><path fill="#fff" d="M25.637 0H6.363C2.855 0 0 2.802 0 6.245v10.51C0 20.2 2.855 23 6.363 23h19.274C29.145 23 32 20.198 32 16.755V6.245C32 2.802 29.145 0 25.637 0z"/></g><g><path d="M13.066 15.893v-8.14l7.103 4.07zm8.725-4.621l-9.048-5.185a.865.865 0 0 0-.655-.003.636.636 0 0 0-.328.555V17a.64.64 0 0 0 .328.562.668.668 0 0 0 .655-.003l9.048-5.184a.619.619 0 0 0 .323-.55.62.62 0 0 0-.323-.553z"/></g></g></g></svg>